<svg width="651" height="576" viewBox="0 0 651 576" fill="#f90000" xmlns="http://www.w3.org/2000/svg">
<g id="europe">
<path id="AL" d="M397 433.5L397.5 433.9L399.5 436.8L400.9 437.3L402.8 438.6L404.2 441.8L404.3 444L403.8 446.6L404.1 448.7L403.3 449.5L404 451.5L404.2 453.4L405.4 455.6L406.6 456.7L407.9 459.1L409.5 458.9L410.8 460V461.1L411.9 462.9L411.1 465.5L409.4 466.3L408.2 469.4L407.9 471.4L407.3 471.9L405.4 472.2L403.7 473.5L404.7 475.7L403.8 476.4L403.5 477.9L402.8 478.6L400.1 477.7L399.4 475.2L397.7 472.5L392.8 469.9L391.6 468.8L392 467.3L391.9 465.9L390.5 463.5L390.8 460.9L391.6 458.7L391.3 456L391.4 453.9L390.7 451L391.2 448.9L392.1 447.6L391.9 445.4L390.4 444.3L388.8 444.1V441L388.5 440.4H390.2L388.5 437.6L391.7 432.3L392.8 432.6L393.6 434.7L397 433.5Z" fill="#ECECEC" stroke="black" stroke-width="0.1" stroke-linecap="round" stroke-linejoin="round"/>
<path id="AT" d="M350.1 340.3L349.2 342.7L349.3 343.5L350.9 346.4L353.2 349.3L352.6 350L352 351.9L352.7 353.9L348.8 354.2L346.3 353.3L345 354.7L347.6 355.4L348.1 356.5L347.6 357.9L345.4 359.1L345.8 360.6L345.3 361.3L346.4 362.9L346.1 364.7L343.6 365.2L341.8 366.9L340.5 367.8L340.4 369.7L338 369.2L336.4 369.4L334.1 370.5L331.3 370.3L328.7 370.5L326.8 371.2L325.8 372.5L322.8 373.7L317.8 373L312.8 372.1L310.2 371.6L306.2 371.3L297.6 369.8L296.5 369.3L293.4 365.8V363.5L288.7 365L285.6 364.8L282.2 365.1L280.8 365.7L279.6 367.9L278.5 368.3L276.4 367.9L275.5 367.1L272.5 366.8L272 365.3L271.2 365L269.2 366.9L266.9 366.5L265.4 365.7L265 364.7L261.7 363.9L262 363.1L260.9 360.6L261.9 357.6L261 356.9L262.7 356.4L263.4 355.9L266.9 357.5L267.8 358.9L269 359.2L268.9 360.5L270.5 360L271.5 358.4L271.7 356.5L274.5 356.4L277.2 356.8L278.6 358.7L282.4 358.2L283.5 357.3L287.4 355.8L293.1 355.3L293.2 353.9L295.2 354.2L296.7 355L299.2 354.5L300.3 355L300.5 356.1L301.7 357L303.4 357.4L303.7 355.9L303.4 354L301.7 353.7L302.3 352.4L302.2 351.1L299.7 348.3L300.3 347L303.4 345.2L306.3 344.4L307.3 343.4L308 340.5L310.3 341.4L311.6 340.5L311.8 337.7L314 338.9L314.8 340.2L318.7 340.6L320.1 339.9L322.6 340.3L322.7 339.2L324 337.6H325.2L325.5 334.4L326.7 334.2L328.3 335L329.7 334.6L334.5 336.3L336 336.2L339 337.9L342.8 338.1L344 337.2L349.1 338.7L350.1 340.3Z" fill="#ECECEC" stroke="black" stroke-width="0.1" stroke-linecap="round" stroke-linejoin="round"/>
<path id="BE" d="M212.3 307.2L213.9 306.7L214.7 307.5L215.9 307.6L218.9 309.9L218.5 311.4L220.2 312.1L220.6 314.1L218.3 315.4L217.7 317.1L216 316.4L214.7 317.7L213.3 320.2L213.1 321.9L215.1 324.3L214 326L210.6 326.4L207.8 323.8L204.5 322.3L202.8 322.2L202.4 320.2L201.8 319.6L202.6 316.9L200.7 317.5L200.2 318.9L198.9 319.5L196.7 319.8L194.4 319.5L193.9 318.9L194.6 317.5L193.9 316.8L194.3 315.2L192.7 314.1L189.1 313.7L188.2 314L187.6 312L183.4 310.9L182.9 308.9L181.3 307.1L178.1 308.1L175.2 305.7V304.5L174.3 302.3L179.4 299.8L184.1 298.1L184.4 299.4L185.6 300.1L186.8 299.5L190.7 300.6L193.9 299.1L194.5 297.9L196.6 298.2L196.4 297.3L197.8 296.6L199.3 297.4L200.8 296.4L201.9 297.7L204.4 296.9L204.9 298.5L207.5 299.9L209.4 299.5L211.1 300.8L213.7 301.9L212.7 304.8L211.6 306.1L212.3 307.2Z" fill="#ECECEC" stroke="black" stroke-width="0.1" stroke-linecap="round" stroke-linejoin="round"/>
<path id="BG" d="M501.9 415L502.1 418.7L501.2 420.5L499.2 419.9L497 420.4L496 422.4L494.8 423.6V426.2L495.2 430.4L493.6 431.1L490.7 434.8L493.7 436.6L495.4 438.8L497.8 441.3L498.3 442.5L496.6 442.3L495.7 442.7H493.9L492.4 443.3L489 440.8L485.5 441.1L484 442.2L480.6 442.6L479.6 444.8L477.7 445.1L477.4 446.5L475.8 446L474.2 447.1L474.9 448.1L475.8 450.8L475.6 451.6L473.1 452.8L471.3 452.5L468.1 452.9L464.7 453.8L463 452.7L459.3 451.5L458.4 452.1L456 450.7L454.8 449L453.2 449.5L449 449.4L448.8 450.3L446.9 450.5L443.9 451.6L441.3 451.4L438.9 451.6L437.9 452.6L434.9 452.4V448.2L435.4 446.5L434.5 445.5L432.8 442.2L429.4 440.4L426.1 437.2L427.1 436.9L428.2 435.2L426.8 432.3V429L427.9 428.4L429.7 428.3L430.8 426.7L432.4 425L432.7 423.6L431.1 422.6L429.8 421L426.9 419.5L424.5 415.6L423.9 413.2L424.3 410.9L426.4 409.9L426.6 408L427.5 407.3L431.8 409.8L430 411.8L430.9 413.6L434.6 413L438.5 413.3L443.8 414.3L447.3 414.7L449.8 414.2L459.2 415.9L463.4 416.1L465.7 415.5L467.3 414.6L468.5 413L471.8 410.9L475 409.7L479.4 408.8L482.3 408.4L486.8 410.7L490 411.1L490.9 411.7L492.6 411.2L495.1 413.8L497.3 414.5L499.9 415H501.9Z" fill="#ECECEC" stroke="black" stroke-width="0.1" stroke-linecap="round" stroke-linejoin="round"/>
<path id="BA" d="M380.5 397.6L383.3 396.9L384.8 397.7L384.3 400.2L382.7 402.9L382.6 405.5L383.1 406.3L385.5 407.5L388.8 410.4L388.5 411.2L385.4 411.1L384.9 411.9L388.1 415.6L387.9 417.8L385.4 417.5L384.7 418.3L381.5 418.8L382.9 421L380.6 421.2L378.6 422.9L378.1 424.6L378.2 426.1L376.5 426.3L376 427L376.6 430L377.7 431.6L377.6 432.4L376.5 433.4L374.8 432.7L368.6 428.9L368 428L366.4 428.1L365.3 427.5L365.6 425.9L362.6 423.4L361.1 421.8L360.7 419.6L358.3 418.5L353.3 414.4L351.6 412.4L348.8 410.1L346.5 407.7L345.2 403.7L341.8 400.5L339.9 399.2L339.8 397.8L340.1 392.8L341.3 392.2L343.1 392.6L344.8 394.4L346.6 395.4L349.3 392.2L352.5 392.5L354 391.3L356.7 392.9L359.2 393L362 393.7L363.7 393.1L365.3 394.4L367.5 393.4L369.3 393.7L371.1 393.5L373.7 394.2L375.9 394.4L377 395.2L378.3 397.4L380.5 397.6Z" fill="#ECECEC" stroke="black" stroke-width="0.1" stroke-linecap="round" stroke-linejoin="round"/>
<path id="BY" d="M466.8 226.9L468.6 228.2L469.8 227.8L471.7 227.7L474.8 229.9L476.4 229L477.9 228.7L481.5 229.9L481.7 232.2L483.4 233.7L485.5 232.4L488.2 231.3H491.6L494.3 232.2L496.7 234L500.2 235.4L500.6 237.9L500 239.7L502.1 241.8L502.6 243.1L501.3 245.1V247.1L505.4 249.1L505.9 249.6L505.4 251.4L506.8 252L508.6 254.4L510.1 255.8L515 257.9L515.7 258.7L515.3 261.5L520.6 262L523.8 263.3V264.4L524.5 265.5L527.3 266.9L527.9 268.6L525.3 269.6L525 270.5L522 272.3L518.5 272.1L516.1 270.6L513.2 270.7L511.8 273.4L515.7 276.7L516.3 277.7L516.1 279.2L517.1 280.7L517.6 284L519.2 285.4L520.5 287.2L515.5 287.1L514.1 287.9L512.4 287.5L511.3 288L509.1 290.3L508.3 291.5L507.3 294.8L509.1 298.4L508.3 299.8L505.6 298.9L505.1 297.7L503.1 296.6L496 297.2L493.7 298L493.1 297.5L490.6 294.5L486.8 296.1L486.2 297.2L485.2 296.9L484.4 295.6L479.3 294.6L477.4 295.3L475.5 294.8L474.3 296.5L473.5 295.1L472.4 294.7L469.4 294.8L468.4 294.5L466.6 292.4H464.3L458.2 291.5L451.7 290L443.9 289.6L441.5 289.7L439.2 290.2L433.3 290.7L432.5 292.1L430.9 293.7L429 294.9L427.9 294.4L426 294.1L424.9 294.6L425 296L424 294.4L423.9 293.1L424.7 291.6L424.3 290.5L424.5 288.1L423.7 287.1L421.9 286.1L418.6 284.8V283.6L420.6 280.9L421.4 280.4L425.4 278.7L426 277.1L425.1 273.2L423.4 269.6L420.5 264.7L418.4 259.6L421.3 260L422.9 259.7L426.6 259.4L428.2 260.3L431.5 259L433.3 259.1L434.1 256.5L436.1 256.7L437.5 255.5L439.6 255L440.6 254.3L442.3 256.6L444.3 256.4V255.4L443.4 254.3L441.5 253.8L442 251.8L443 250.3L442.6 248L443.7 245L446.3 244.4L447.1 243.8L448.1 241.8L451.7 241.9L452.1 240.8L453.4 239.8L449.5 238.8L450.2 235.7V233.9L452.8 233.3L454 231.8L455.1 231.5L458.1 231.9L461.2 232L461.6 230.3L464.1 227.9L465.5 227.1L466.8 226.9Z" fill="#ECECEC" stroke="black" stroke-width="0.1" stroke-linecap="round" stroke-linejoin="round"/>
<path id="CH" d="M256.4 354.5L257.2 355.6L259.8 356.9H261L261.9 357.6L260.9 360.6L260.4 362.1L260.5 363.8L261.7 363.9L265 364.7L265.4 365.7L266.9 366.5L269.2 366.9L271.2 365L272 365.3L272.5 366.8L272 369.9L272.5 371.7L270.6 371.5L269.6 370.6L268.3 370.9L267.7 372.7L269.2 376.2L268 376.5L266.6 374.6L265.9 374.5L263 375.6L261 374.8L260.2 372.7L258.2 372.8V375.7L257.7 376.8L255.5 379.4L255.3 380.4L256 382.1L254.8 382.8L253.9 381.4L252.6 380.2L253 379L250.8 378.4L248.4 376.4L248.2 373.9L247.2 373.3L243.8 376.2L244.4 377.7L242.8 379.9L240.4 381.3L237.3 380.5L234.7 381.5L232.3 382L230.9 381.3L230 379.9L227.7 377.6L228.2 375.9L227.4 373.7L225.2 373.4L223.3 373.5L221 375L221.5 376.3L219.2 377.9L217.8 377.8V376.8L219.3 375.8L219.6 374.3L218.8 373.6L219.9 370.7L222.9 368.5L223.4 365.6L225.5 364.7L229.3 360.7L229.9 359.8L228.6 358.7L230.4 357.3H231.5L232.3 358.1L235 357.8L235.8 356.4L237.3 355.7L238.3 356L241.1 356.1L244.4 355.5L247 355.7L246.8 354.2L248.1 353H249.4L250.8 354L251.6 353.8L252.7 354.7L256.4 354.5Z" fill="#ECECEC" stroke="black" stroke-width="0.1" stroke-linecap="round" stroke-linejoin="round"/>
<path id="CZ" d="M321.2 305.9L323.3 305.5L323.2 303.6L326.5 304.4L326.8 305.5L327.8 306.6L332.4 307.7L335.1 308.8L335.9 309.7L339.1 309L340.9 310.2L340.2 311.3L338.6 312.5L340.2 313.4L342.2 315.2L343.7 317.1L344.7 317.5L348.2 315L346.5 312.6H347.8L350 313.2L353.3 315.1L356.9 314.4V316L355.5 316.5L358.2 318.8L359.2 319.4L361 318.4L364.5 320.2L365 320L367.7 320.8L368.2 322.6L371 324.8L371.5 326.4L368.7 326.7L366.7 328.2L366.1 329L363.8 330.2L363.1 333.2L361.5 334L359.4 335.9L357.9 336.6L356.2 336.8L352.6 336.3L351.2 337.5L350.1 340.3L349.1 338.7L344 337.2L342.8 338.1L339 337.9L336 336.2L334.5 336.3L329.7 334.6L328.3 335L326.7 334.2L325.5 334.4L325.2 337.6H324L322.7 339.2L322.6 340.3L320.1 339.9L318.7 340.6L314.8 340.2L314 338.9L311.8 337.7L311.2 337L308.3 334.8H307L305.7 333.2L303.2 331.7L300.3 329.1H299L296.7 327.1L294.9 324.4L293.5 322.9L294.7 321.2L294.1 319.6L291.8 318.3L289.3 314.9L289.8 314.2L291.7 316.2L293.6 313.6L294.7 313L297.3 312.4L299.4 312.8L300.2 311.5L302.2 311.2L302.8 310.2L304.4 309.5L305.5 309.6L306.1 308.4L310.5 307.4L314 305.9L315.9 305.3L314.4 303.8L315.2 303.2L317.4 303.6L318.9 305.1V306L320.3 306.6L321.2 305.9Z" fill="#ECECEC" stroke="black" stroke-width="0.1" stroke-linecap="round" stroke-linejoin="round"/>
<path id="DE" d="M310.2 260.6L306.8 260.5L306.6 258.8L305.5 257.8L305.4 256.8L310.1 259.4L310.2 260.6ZM275.4 252.5H273.6L272.2 251.8L273 250.8L274.7 251.2L275.4 252.5ZM303.7 253L302.4 253.7H301.1L299.8 255L297.7 253.9L297.2 252.8L297.3 250.6L297.9 249.2L299.9 248.3L300.8 249.5L302.5 250.1L302 251.8L303.7 253ZM257.1 246.4L258.9 247.1L260.5 248.7L260.6 250.1L258.9 251.7L262.1 251.4L262.9 252.6L264.6 252.2L269.1 254L272.3 253.1L273 254.5L272.4 256L270.2 257.6L271.6 258.8L273.7 258.6L277.3 259.5L280.6 257L281.7 256.5L285.3 256.2L290.4 251.7L295.7 252.6L297.2 254.5L300.9 256.6L304.1 256.4L305.4 258.4L306.2 260.9L308.1 262.2L310.9 262.7L311.6 265.3L313.4 269.4L313.1 272.1L311.2 273.9L310.5 275.5L312.1 276.9L315.4 279L316.8 280.7L316.2 283.3L318.2 285.6L319 287.5L318.3 290.1L317.5 291.2L319.4 294.3V295.9L321.6 296.8L323.2 300L322.8 302.3L321.2 305.9L320.3 306.6L318.9 306V305.1L317.4 303.6L315.2 303.2L314.4 303.8L315.9 305.3L314 305.9L310.5 307.4L306.1 308.4L305.5 309.6L304.4 309.5L302.8 310.2L302.2 311.2L300.2 311.5L299.4 312.8L297.3 312.4L294.7 313L293.6 313.6L291.7 316.2L289.8 314.2L289.3 314.9L291.8 318.3L294.1 319.6L294.7 321.2L293.5 322.9L294.9 324.4L296.7 327.1L299 329.1H300.3L303.2 331.7L305.7 333.2L307 334.8H308.3L311.2 337L311.8 337.7L311.6 340.5L310.3 341.4L308 340.5L307.3 343.4L306.3 344.4L303.4 345.2L300.3 347L299.7 348.3L302.2 351.1L302.3 352.4L301.7 353.7L303.4 354L303.7 355.9L303.4 357.4L301.7 357L300.5 356.1L300.3 355L299.2 354.5L296.7 355L295.2 354.2L293.2 353.9L293.1 355.3L287.4 355.8L283.5 357.3L282.4 358.2L278.6 358.7L277.2 356.8L274.5 356.4L271.7 356.5L271.5 358.4L270.5 360L268.9 360.5L269 359.2L267.8 358.9L266.9 357.5L263.4 355.9L262.7 356.4L260.5 355.2L255.4 352.9L256.4 354.5L252.7 354.7L251.6 353.8L250.8 354L249.4 353H248.1L246.8 354.2L247 355.7L244.4 355.5L241.1 356.1L238.3 356L237.3 355.7L236.2 354.4V352.9L236.8 350.9L236.6 348.5L236.9 347L237.9 345.2L239.3 339.7L242.8 335.9L242.7 334.6L241.1 334L236.3 333.2L234.3 331.8L231.3 332.4L229.2 332.3L228.9 331.4L227.5 331L225.7 331.7L222.2 327.4L220.8 327.3L221.4 324.3L222.3 323.4V322L219.5 320.9L218 319.3L217.7 317.1L218.3 315.4L220.6 314.1L220.2 312.1L218.5 311.4L218.9 309.9L215.9 307.6L216.5 305.2L214.6 304L215.1 303.2L217.3 301.6L216.6 300.4L217.9 297.6V296.4L214.8 292.3L215.5 291.2L217.3 290.5L219.6 291.3L224.1 290L224.8 289L223.8 288.1L224.1 287.2L226.7 285.6L227.3 283L226.5 282L223.9 281.7L223.2 280.7L223.8 279.1L226.9 279.2L228 275.4L228.7 273.7L228.6 269.4L226.9 268L227.4 265.3L228.5 263.9L229.4 263.5L233.4 263.2L237.9 263.3L239.8 265.5L239.2 266.7L240.8 267L241.7 264.6L243.1 265.4L244.2 265.3L243.7 263.6L243.9 262L244.8 260.6L248.1 261.2L251.7 260.9L251.8 260.3L249 259.8L248.1 258.7L247.9 254.8L246.4 254L244.8 254.3V252.8L248.2 251.7V250.7L244.8 246.9L244.6 245.3L247.3 245.4L252.5 246.7L255.6 246L257.1 246.4Z" fill="#ECECEC" stroke="black" stroke-width="0.1" stroke-linecap="round" stroke-linejoin="round"/>
<path id="DK" d="M275.8 245.4L277.9 246.4L280.3 246.7L280.7 248.6L277.2 249.3L272.1 247.2L272.2 244.7L274.5 244.5L275.8 245.4ZM289.5 244.3L287.2 244.4L285.3 245.4L285 244.2L286.6 243.2L287.8 243.4L289.5 244.3ZM260.7 245.5L259.5 245.7L257.8 245.2L257.2 242.9L259.9 244L260.7 245.5ZM268.7 247.5L267.3 246L269.8 243.1L270.5 242.9L268.7 247.5ZM318.8 243.5L316.4 243.3L314 242.3L314.1 240.3L314.6 239.4L319.1 241.7L318.8 243.5ZM266.7 234.8L269 239.1L268.9 241.9L267.1 243.1H265L259.6 241.4L257.9 238.5L257.8 236.2L262.6 234.8L265.2 235.6L266.7 234.8ZM290 235L289 235.6L288.3 234.7L289.2 233.8L290 235ZM266.1 232.2H265.2V229.2L266.7 230.8L266.1 232.2ZM288.7 232.2L288.8 233.7L288.1 234.4L286.1 235.1L285 236.9L287 238.1L287.5 239.6L286.5 240.3L283.9 241V246.6L281.7 247.2L280.2 245.1L280.1 244.2L278.8 241.1L276.8 240.7L274.6 240.8L273.1 239L273.2 236.9L272.2 234.9L270.9 234.3L271.3 232.9L274.4 232.7L275.9 230.8V229.9L277.7 229.7L278.5 230.4L278.6 233L280.2 233.5L281.3 230.6L280.4 229.5L284.3 227.3L285.4 227.2L288.4 228.1L288 230.2L288.7 232.2ZM257.1 246.4L255.6 246L252.5 246.7L247.3 245.4L244.6 245.3L244.1 243.2L243.3 241.8L244.4 241.5L243.5 237.6L240.3 236.3L237.8 234.9L238.3 229.3L237.3 227L237.4 220.1L238.7 220L241.8 220.8L243.3 221.7L243.9 219.8L245.5 218.2L247.5 217.4L249.1 218.7L249.4 214.2L247.8 213.7L246.5 214.1L245.2 216L244.2 218.4L242.3 218.6L240.8 219.3L238.4 217.9L238.5 216.5L240.1 214.6L242.1 212.7H244.3L245.9 212.1L249.8 212.2L252.6 210.9L255.4 207.3L256.9 205.8L260.2 205.3L263.2 203.6L262.4 206.1L263.6 207.8V210.8L262.7 211.8L261.3 214.3L261.5 219.9L264 221.4H268.1L269.1 222.5L268.4 224.7L265.8 226.1H264.9L263.5 225L262.4 225.9L261.2 231L259.2 230.9L258 231.4L259.4 232.6L258.1 233.4L254.7 236.5L255.8 239.9L255.6 240.8L254.1 242.1L253.5 243.2L255.8 243.5L257.1 246.4Z" fill="#ECECEC" stroke="black" stroke-width="0.1" stroke-linecap="round" stroke-linejoin="round"/>
<path id="EE" d="M397.8 190.7L401.7 190.9L405.7 192.7L403.9 193.4L400.2 195.9L399.9 196.4L397.3 196.3L395.9 196.5L394.9 197.4L394 200.2L392.4 200.7L392.1 199.8L393.7 198L392.2 196.6L390.3 195.9L391.2 194.1L389.6 192.5L391.1 192.3L392.1 192.8L394.1 192.3L394.6 191.3L397.8 190.7ZM406.1 191.7L405.2 191.9L402.8 190.8L403.8 189.8L405.7 190.3L406.1 191.7ZM400.7 187.7L399.9 188.4L399 187.8L398.1 189.4L396.8 189.7L394.9 187.2L392 186.7L390.7 186L395.2 185.6L396.4 184L397.7 184.1L398.1 185L400.2 185.3L401.1 186.3L400.7 187.7ZM453.9 206.6L452 206.4L448.6 205.4L444.6 206.6L441.8 205.5L438.3 202.8L437.7 202.1L435.4 201.6L429.8 199.1L428.7 199.8L427.2 198.8L418.8 201.6L419.8 198.2L419.9 194.6L417.6 194.2L416.7 195.5L415.4 195.8L411.3 194.5L410.1 192.4L408.5 191.3L407.7 190.1V188.3L406.2 186.3L406.9 185.2L406.2 182.4L409.2 181.2L412.5 181L413.4 179.7L415.4 178.4L417.7 178.6L420.8 177.6L427.1 177.7L427.5 176H430.7L438.3 177.2H440.1L442.9 178.4L444.3 178.7H448.3L454.6 179.2L455.8 178.2L457.3 179.4L456.3 180.8L455.1 181.2L454.2 184.4L453.4 185.4L451.7 185.1L449.2 185.3L447.2 185.8L445.9 186.9L446 188L448.6 190.3L450 193.1L452.6 195.3L453.4 196.6L455.8 199.5L457.6 202L455.3 202.6L454.1 204.6L453.9 206.6Z" fill="#ECECEC" stroke="black" stroke-width="0.1" stroke-linecap="round" stroke-linejoin="round"/>
<path id="FI" d="M388.8 165.4L390.8 165.6L390.2 168.4L387.9 166.6L388.8 165.4ZM386.9 165.9L384.8 165.3L385.7 164.5L386.9 165.9ZM380.4 163.2L378.9 163.9L378.6 162.2L380.4 163.2ZM405.9 100.3L404.4 100.8L403.1 100.5L402.9 99.6L404.9 99L405.9 100.3ZM436 45.7L432.3 47L433.9 47.8L434.7 49L432.7 52.2L432.8 52.8L435.9 56.8L443.1 58.5L445.4 60.3L449 62.6L450.8 63.5L450.9 65.4L447.9 68.4L445.3 71.5L444.1 73.2L444.5 74.9L447.1 77L449.4 79.2L452.4 82.7L455.4 85.2L458.4 89.4L458.8 90.8L455.1 91.5L456.3 92.4L455.7 93.7L456 95.6L455.5 97.1L457.4 97.4L457.7 98.7L456 99.7V100.6L457.4 102.3L458.4 102.9L461.6 103.5L462.5 105.1L461.5 106.8L463.3 109L467.8 110.8L468.5 112.1L468.7 113.8L466.3 116.8L464.3 117.6L465 118.4L469.5 121L476.1 123.9L478.7 125.2L480.8 127.1L483 128.7L483.5 129.7L481.9 134.2L481.2 135.4L479 137.6L475.6 140.4L473.3 142.7L468 148.6L466.1 150.1L464 152.3L459.1 155.6L458.4 156.4L455.9 157.9L450.3 163.1L446.8 164.1L444.2 163L442.4 163.2L441.2 164L438.7 164.2L436.7 164.8L435.7 164.1L435 164.7L433.1 164.9L431.1 163.9L431.4 165.4L428.1 166.9L427.3 166L425.3 167L423.2 167.2L422.1 168L416.2 169.1L414.7 170.4L413.5 170.1L406.8 171.2L403.9 171L401.2 173L399.4 173.4L400.9 170.4L398.5 169.3L397.3 167.7L396.6 168.1L396.3 169.6L394.8 170.4L392.8 170.3L392.4 167.9L393.2 165.6L389.6 165L385.8 163.6L384.9 163.5L384.2 162.2L382.2 163.1L380.1 162.2L378.4 156.9V155.6L379.3 154L379.2 150.6L378.6 148.6L379.7 148L378.8 146.4L376.6 143.4L375 142.3L375.5 139L374.9 137.4L373 136.3L371.9 133.4L372.5 131L374.9 128.8V127.6L375.8 126.5L375.3 125.2L378 124.7L379 125.1L381.4 124.7L383.3 123.7L382.2 121.9L383.7 121.2L384.9 120L384.8 119L387.1 118.5L389.5 116.6L391.8 115.5L394.1 113.6L395.2 113.5L395.5 112.2L398 110.3L398.8 108.7L401.1 106.9L403.3 103L407.1 101.8L410.9 102.1L410.3 100.4L411.3 100.1L410.7 98.8L409.7 98.2V93.6L408.4 92.7L403.9 91.1L402.2 91L401 89.8L396.4 89.1L394.8 86.6L392.9 84.4L391.1 83.8L389.8 81.2V79.9L391.3 78.6L391.2 76.8L391.9 75.4L391.3 74.5L388 71.9L387.2 70.3L387.3 69.2L388.3 68.4L387.7 67.1L384.9 66.7L385.2 64.8L384.5 63.4L384.1 61L385.2 60L383.4 59.1L381.5 57.6L380.1 57.5L378.9 55.9L375.4 54.1L367.1 52.4L362.9 50.6L358.1 48.3L355.2 47.2L354.8 46.3L351.9 45.5L352.4 45.1H354.5L356.4 45.5L356.9 44.9L355.9 43.5L357.8 42.4H361.4L369.3 47.9L370.7 49.7L377.6 50.3L378.4 50.8L380.2 50.7L383.9 49.8L385.1 48.6L386.6 48.7L390.2 49.8L394.1 50.6L396.7 51.4L398 50.8L398.5 49.1L400.1 47.8L402.2 47.5L403.7 46.1L403 42.9L403.6 41.2L404.3 37.4L406.9 35.7L408.6 33.9L410.7 33.7L414.5 34.1L415.4 33.9L418.9 32.3L421.8 32L423.6 33.2L427.8 35.2L432 36.3L435.6 37.1L438.2 39.8L437.5 40.8L434.3 43.7V44.4L436 45.7Z" fill="#ECECEC" stroke="black" stroke-width="0.1" stroke-linecap="round" stroke-linejoin="round"/>
<path id="GB" d="M131.4 308.5L129.8 309.8L128.5 310L126 308.8V308.3L128.5 307.2L130.5 307.8L131.4 308.5ZM94.9 268.8L96.2 269.7L92.8 271.6L91.5999 271L90.7 269.8L90.5999 267.9L91.8 267.4H93.5999L94.9 268.8ZM71.5999 257.4L69.5 257.8H66.5999L66.7 256.3L65.3 255.8L63.5 253.1L62.2 252.6L60.3 254.2L60.8 255.1L58.4 256.9L55.5 256.6L54.7 255.9L52.5999 255.5L52.4 254.5L49.7 252.5L50.7 251.1L53.5999 250.2L52.5999 248.8L52.8 248L54.4 248.1L56.5999 247.3L57.8 245.7L58.8 243.4L60.7 242.5L62 243.1L63.9 241.1L66.7 241L69.4 240.3L73.3 240.6L74.4 241.7L74.9 243.4L76.2 245.1L77.9 246.5V247.4L75.9 248.5L79.4 248.8L80.5999 251.3L78.5 251.6L78.4 253L79.5 253.2L78.9 254.6L76.3 255.2L74.9 257.4L73.9 257.9L71.5999 257.4ZM85.3 237.2L82.7 236.7L82.0999 234.7L83 233.3L84.8 234L85.4 235.3L85.3 237.2ZM73.8 230.1L74.5 233.5L72.0999 234.8L71.3 232.4L69.9 233.4L70.0999 231.5L71.5999 231.2L73.8 230.1ZM75.5 231.8L74.4 230.6L76 228.4L77.7 227.4L77.5999 229L75.5 231.8ZM78 224L73.4 224.8L74 221.8L72.0999 220.9L72.4 220L74.5 219.5L76.2 221.2L78.3 221.8L78 224ZM61.8 212.6L60.3 212.4L59.9 211L60.0999 208.7L61.7 208.9L61.8 212.6ZM74.5999 206.9L74.5 209.7L77.4 210.5L79.4 210.4L79.8 211L76.5 213.7L75.8 213.6L75.5999 211.4L74.2 211.7L72.3 211.4L71.0999 209.5L68.4 209L67.5 207.9L68.9 207.3L69.2 206.1L72 205.5L73.5 204.8L74.4 205.8L74.5999 206.9ZM62.7 204.3L63.9 205.2L62.8 206.5H61.3L59.0999 205.5L59.3 205L62.7 204.3ZM74.5 194.4L72.9 197L71.9 197.7L71.7 199.4L68.7 201L65.5 203.4L64.0999 202.4L66.7 200.7L64.5999 199.7L64.4 197.1L65.2 196.4L66.5999 197.1L68.5 196.8L67.8 195.6L74.0999 192.4L74.5 194.4ZM109.3 192.2V193.4L108 195L105.8 196.2L101.6 199L99.0999 200.3L98.5999 201.9L100 202L100.2 202.8L98 204.4L97.4 205.9L100.4 205.5L105.7 204L109.3 204.5L111.9 204.2L118.8 204.4L120.7 204.1L123 205.4L124 207.1L121.2 210.5L120.4 212.8L118.4 216.3L116.5 218.3L114.5 220.8L112.4 221.9L109.3 222.4L113.8 224.3L112.4 226.1L110 226.2L107.7 227.9L105.6 228.6L109.2 229.7L111.6 228.7L114.3 228.6L119.5 230.5L123.1 233.9L125.1 235.4L125.6 236.5L127.7 243.4L129.2 247.2L130.8 249L135.3 250.6L136.4 251.2L139.8 254.5L143.2 256.9L141.8 258.4L142.2 259.6L144.3 262.5L144.6 264.1L143.3 264L141 262.6L140.7 263.3L145.7 266.6L147.3 268.6L148.3 271.3L147.7 272.4L144.7 275.1L147.5 276.5L148.7 276.3L150.7 274.2L152.4 274L156.6 274.3L160.4 275.3L163.7 277.4L164.4 278.5L164.8 281.6L162.6 287.4L159.8 289.3L159.3 291L157.2 291.9L155.5 291.6L153.1 292.8L154.8 293.4V295.1L153.7 295.7L151.2 295.9L152.3 297.9L154.8 298.3L159.1 298.1L161 298.3L160.8 301L160.4 301.4L156.6 303.1L155.6 304.9L153.4 304.8L152.3 305.5L146.6 307.4L141.7 306.6L138.8 306.7L134.8 307.3L130.6 306.1L128.8 305.9L126 307.6L121.8 308.1L119.8 307.9L120.7 309.4L119.8 309.8L116 309.3L115 309.8L113.6 309.6L110.9 308.2L108.3 308.1L103.4 309.3L102.4 310.6L101.1 314.1L100 315.3L98.5999 315.5L94.0999 313L92.5999 313.5L90.0999 313.8L87.4 314.5L83.5 316.9L82.5999 318.4L81.3 318.6L80.2 317.7L78.8 317.4L76.5 318.2L76.2 316.9L77.2 315.9L80 315.2L82.5 313.3L84.7 311L89.3 307.2L90.0999 304.1L92.8 303.4L94.2 300.9L98.3 300.3H101.1L103.9 300.8L106.8 300.7L107.9 300L109.8 297.6L113.4 294.6L108.7 295.6L104.9 297.9L101.7 297.5L99.4 295.6L97.3 294.8L95.2 295.2L94.5 294.3L92.0999 292.6H89.5L85.9 294.3L83.3 293.1L82.4 290.8L82.7 289.4L83.8 288.7L86.3 288.1L90.0999 286.4L92.3 285.7L95.0999 283.8L96.3 281.5L96 279.5L96.5 278.1L95.5999 276.4L95.9 274.9L92.9 275.2L90.2 276.4L89.5 275.3L92.3 273.5L93.3 272.1L95.9 270.4L99.5 269.1L101.4 269.2L105.1 268.5L107.8 269.8L107 267.7L108.2 267.3L108.3 264.9L109.9 262.7L108.7 262.1L108.8 260.1L110.3 259.3L111 256.7L109.3 256.2L107.2 256.8L105.5 255.3L102.7 251.7L102.4 250.3L104 247.2L106.3 245.2L104.4 244.4L103 244.6L100.3 245.8L98.3 247.1H96.2L95.4 246.2L94.3 246.3L91.8 247.4L88.3 246.1L87.2 248.4L84.5999 245.9L84.3 244H85.5999L86.8 241.6L89.7 237.6L90.3 236.4L89.8 235L87.9 233.5L88.2 230.9L89 229.9L90.5 229.5L88.5999 228.3L85.7 229.2L83.9 230.1L84.2 228.1L83.5999 227.7L82.0999 229.1L82.2 232.4L80.0999 238.1L79 239L77.5999 238.5L78.7 234.6L80.0999 232.1L79.5 231.8L79.8 228.2L80.8 225.3L82.5 221.5L84.7 218L80.5999 220.7L79.5999 221.2L77.2 220.8L76.4 220.1L75.4 217.8L77.2 217.6L78.9 216.5L77.4 215.8L78.9 214.9L80.5999 212.8L81 210.9L80 209.4L78.4 208.8L78.2 207.9L79.9 206L79.2 204.5L80.8 201.4L83.8 201.5L85.7 201.1L83.4 199.1L84.0999 196.2L87.8 195.9L87 194.1L87.3 192.1L88.9 191.2L90.2 191.4L91.2 192.3L93.8 191.4L94.4 192.2L97.2 191.6L100.9 191.3L105.4 190.7L107.6 190.3L109.9 190.5L109.3 192.2ZM108.7 188.2L107.4 188.3L106.1 186.9L107.6 186.6L108.7 188.2ZM110 184.8L112.7 185.4L112.1 186.8L110.7 186.1L108.7 186.4L106.8 185.4L107.2 183.3L108.9 183.2L110.1 183.7L110 184.8ZM113.7 182.5L112.7 182.8L112.3 181.6L110.6 181L111 180.2L113.7 182.5ZM129.8 163L131.4 164.8L132.4 165.3L131.1 169.1L130.9 170.7L129.9 172.4L129.1 172L130 169.1L129.5 168L127.8 168.3L127.4 167.4L129 166L128.2 164L127.1 163.8L128.6 162.2L129.8 163ZM132.7 163.4L131.3 162.1L132.6 161.5L132.7 163.4Z" fill="#ECECEC" stroke="black" stroke-width="0.1" stroke-linecap="round" stroke-linejoin="round"/>
<path id="GR" d="M455.2 543.1H457.5L459.2 542.1L461.4 545.8L463.1 545.7L466.6 544.8L470.3 545L471.7 546L474.3 546.2L476.6 546.7L479.9 546L480.3 546.4L480.4 549.2L481.6 549.4L482.3 548.7L484 548.1H485.8L487.4 547.3L487 550.8L486.1 551.2L481.7 551.1L473.6 552.1L468.3 552.5L467.6 552.3L466.9 550.1L463.6 549L457.4 548L455.9 547.6L452.8 547.8L451.7 546.8L451.3 545L451.5 543.1L452.9 543.4L453.3 542L455.2 543.1ZM498.6 544.2L497 542.1L498.1 541.6L499.3 544L498.6 544.2ZM443.9 532.8L442.5 533L441.8 530.8L442.3 529.8L444.4 531.9L443.9 532.8ZM506.6 536.9L504.9 536.5L505.3 534.7L504.6 533.1L506.9 530.4L510.1 529.1L511 530L510.1 532.5L509.2 533.8L509.6 534.8L508 535L506.6 536.9ZM487.6 526.6L486.1 527.8L485.2 527.2L487.1 526L487.6 526.6ZM493.8 524.4V523.7L495.1 522.6L497.6 521.6L498.8 522.2L496.3 523.6L494.8 523.7L493.8 524.4ZM471.6 519L470.7 520.3L469.4 519.6L469.8 518.4L470.9 517.8L471.6 519ZM475.2 520.6L474.1 521.2L472.7 519L474.6 517L475.5 517.7L475.6 519.5L475.2 520.6ZM480.6 511.8L481.2 510.2L482.8 510.1V511.2L480.6 511.8ZM458.9 511.1L457.9 510.7L458.3 509.5L459.4 510L458.9 511.1ZM490.5 507.4L493.3 508.1L492.6 509.1L491 510L489.3 509.1L488.1 507.9L490.5 507.4ZM413.8 507.5L414.2 508.7L413.1 509.7L411.5 508.5L410.3 506.7L411.2 505.6L412.1 506.8L413.8 507.5ZM466.9 508.2L465.5 508.1L463.1 506L464 504.6L464.9 505.8L466.2 505.9L466.9 508.2ZM409.6 498.5L409.9 500.3L410.8 500.6L412.1 502.2L411.9 503.4L409.8 502.6L408.8 502.8L407.7 500.8L406.4 501L407 499.2L408.4 499.3L409.6 498.5ZM480.4 501L479.3 501.9L477.5 500.2L478.9 498.9L476.8 496.5L476.7 495.5L478.8 495L480.1 495.9L480.7 497.1L481.1 499.7L480.4 501ZM410.2 494.9L408.9 495L408.5 494.1L409.3 491.7L410.4 492L410.6 494.5L410.2 494.9ZM444.8 489.5L445.7 491.2L451.2 493.7L454 494L455.7 496.6L455.5 497.2L457 501L458.1 501.9L460.8 502.2L461.2 504.1L460.3 504.9L458.4 504.2L456.3 502.6L455.9 501.3L453.7 498.4L450.1 498.2L448.6 497.5L448 495.8L446.5 494.9L444.5 493L443 491.9L440 490.8L439.4 490.1L441.3 488.8L443.4 488.3L444.8 489.5ZM482.7 483.7L482.6 484.6L484.5 486.1L485.2 487.1L484 489.2L480 488.4L479.2 487.6L480.8 486.3L479.9 485.8L478.7 487.3L476.5 486.6L475.6 485.7L476.3 484.3L477.8 484.4L479.5 483.6V483L481.8 482.8L482.7 483.7ZM401.4 482.1L400.1 482.4L398.9 481.6L397.7 479.7L395.5 477.5L396.2 476.4L397.8 476L399.2 477.2L398.1 478.4L398.9 479.1L399.8 481.5L401.4 482.1ZM469.2 473.5L468.5 474.9L468.4 476.2L464.6 475.5L464.3 473.2L466.5 473.1L467.3 473.9L468.3 473L469.2 473.5ZM471.6 466.6L470.2 467L468.5 465.7L469.9 465.2L471.6 466.6ZM459.7 463.6L458.1 464.2L456.3 463.1L457.4 460.8L458.7 460.9L459.7 462.2V463.6ZM475.6 461.9L475.1 461.2L473 460L468.4 459.4L466.1 458.5L465.2 458.7L463.2 457.7L462 458.1L459.5 459.8L458 459.6L456.4 458.6L454.2 459L452.5 460.9L450.7 461.9L448.9 461.5H446.6L446.4 462.6L448.4 464.7L447.9 465.7L448.4 466.7L450.5 466.8L453 468.1L452.3 468.8L449.1 467.6L447.9 467.5L446.7 468.7L450.2 471.4L450.7 472.8L450.1 473.7L448.6 472.9L446.1 469.7L443 469.1L442.6 469.7L443.8 472.1L446.7 473.8L446.1 474.4L443.1 473.4L442 471.8L441.6 469.8L436.1 467L434.7 464.2L432.5 465.5L432.9 467.5L432.3 471.3L432.7 472.6L436.2 476.3L437.5 479L440.1 481.1L442.7 484.3L443.4 486.1L442.1 487.2L440.8 486.7L441.1 484.8L438.9 483.6L437 484.8L438.5 487.1L439 488.3L438.6 489.6L437 490.4L434.4 490.5L436.8 491.9L440.1 492.9L441.7 494L443.2 494.1L444.9 496.2L447.5 496.8L449.2 498.9L451.2 499.4L452.9 500.2L453.9 502.3L454.2 505.2L454.8 507.3L454.9 509L453.8 509.5L452.5 507.9L448.3 504.3L447.3 503.9L446.3 504.6L443.4 505.1L441.5 506.4L443 507.7L443.1 508.9L443.9 510.4L445.9 510.8L447.9 513.2L444.9 514.2L443.8 514.9L443 514.4L442.8 513.2L438.5 511L437.9 511.6L438.6 514L439.9 515.6L442.1 519.9L443.4 523.6L443.2 525.7L444.2 527.2L444.3 528.7L442.6 527.5L440.4 525L439.6 523.5L437.4 523.6L436.1 526.9L436.3 528.8L434.7 527.7L434.5 524.8L432.4 522L431.5 521.6L430.2 519.7L428.7 520.3L428.6 523.2L428.2 524.2L426 522.3L423.7 518.8L423.5 517L424.9 515.3L424.6 514.1L423 511.6L420.9 510.1L419.7 509.6L419 508L417 506.7V505.7L419 504L420 501.4L421.9 501.9L423.3 501.7L425.3 499.3L426.9 499.4L430.8 501.5L435 502.7L437.1 503.7L438.3 504.8L439.9 505.1L439.4 503.7L440.2 503.3H442.3L442.5 501.7L440.5 501.1L439.7 501.3L437.3 499.9L435 499.1L432.8 497.6L431.6 498.9H430.4L427 498L424.9 498.7L420.7 499.4L419.6 498.1L417 499.1L416 498.4L414.1 494.2L412.4 492.3L411.2 491.8L411 489.9L412.5 489.7L414.9 490.6L415.8 490L415.2 488.4L412.7 488.2L410.9 488.7L408.1 486.5L406.6 484.8L404.4 483.7L402.7 480.3L400.1 477.7L402.8 478.6L403.5 477.9L403.8 476.4L404.7 475.7L403.7 473.5L405.4 472.2L407.3 471.9L407.9 471.4L408.2 469.4L409.4 466.3L411.1 465.5L411.9 462.9L410.8 461.1V460L415.4 459.7L416.3 459.1L418.6 459.7L421 458.4L422.7 455.9L423.5 455.6L426.5 455.2L429.8 455.8L432.7 454.8L432.9 452.7L434.9 452.4L437.9 452.6L438.9 451.6L441.3 451.4L443.9 451.6L446.9 450.5L448.8 450.3L449 449.4L453.2 449.5L454.8 449L456 450.7L458.4 452.1L459.3 451.5L463 452.7L464.7 453.8L468.1 452.9L471.3 452.5L473.1 452.8L475.6 451.6L475.8 450.8L474.9 448.1L474.2 447.1L475.8 446L477.4 446.5L478.6 446.8L480.9 448.3L481.8 451.4L478.4 453.9L478.9 458.3L476.4 461.5L475.6 461.9Z" fill="#ECECEC" stroke="black" stroke-width="0.1" stroke-linecap="round" stroke-linejoin="round"/>
<path id="HR" d="M353.5 426.6L355.8 427L354.7 427.9L353.5 426.6ZM366.4 428.1L368 428L368.6 428.9L374.8 432.7L376.5 433.4L377.7 435.3L372.9 432.2L368.5 429.7L365.4 429L361.1 427L360.6 426.1L366.4 428.1ZM360.1 424.6L359.3 424.7L353.7 424.6L352 424.3L351.5 423L353.3 423.2L353.8 423.8L360.1 424.6ZM354.8 422.3L352.8 422.4L350.2 421.6L350.5 420.5L355.3 421.1L354.8 422.3ZM333.6 405.8L333.3 406.2L330 403.5L329.7 401.6L332.5 404.3L333.6 405.8ZM328.7 399.3L326.8 399.1L327.6 398L328.7 399.3ZM324.5 400.8L323.6 400.7L321.9 396.5L322.3 395.3L321.5 393.3L322.4 393L322.9 395.1L323.9 396L323.8 397.6L324.5 400.8ZM328.2 395.9L326.7 396.2L325.7 395.2L324.4 395L323.4 394L324.4 393.3L324.9 392.1L328.2 395.9ZM377.7 381.2L377 382.7L378.6 385.4L378.8 387L380.1 387.4L379.7 389.4L380.9 390.4L383.9 391.4L384.8 392.9L382.5 393L380.8 393.4L381.5 396L380.5 397.6L378.3 397.4L377 395.2L375.9 394.4L373.7 394.2L371.1 393.5L369.3 393.7L367.5 393.4L365.3 394.4L363.7 393.1L362 393.7L359.2 393L356.7 392.9L354 391.3L352.5 392.5L349.3 392.2L346.6 395.4L344.8 394.4L343.1 392.6L341.3 392.2L340.1 392.8L339.8 397.8L339.9 399.2L341.8 400.5L345.2 403.7L346.5 407.7L348.8 410.1L351.6 412.4L353.3 414.4L358.3 418.5L360.7 419.6L361.1 421.8L362.6 423.4L365.6 425.9L365.3 427.5L361.8 424.7L359.2 423.2L356.1 420.4L352.3 419.3L349.6 418.1L346.3 418.7L344.5 418.5L343.8 416.3L338 412.4L333.7 408.4L332.9 407.1L336 405.9L334.6 405.1L330.7 401.7L329.5 400.1L329.4 396L328.6 394.3L325.7 392.1L324.6 391L322.5 390.3L321.1 391.2L320.8 393.1L317.8 398.1H316.5L313.4 393.9L312.9 392L311.6 388.1L312.3 387.6L312.8 388.2L316.1 389L317.5 387.7L318.6 388.2L322.2 388.1L322.8 387.8L324 385.6L326.6 387.7L328.1 388.4L329.4 387.9L331.4 388.6L333 388.8L334.2 388.4L333.4 386.1L334.1 385.4L333.1 384.3L335.2 383.3L337.3 382.7L337.7 381.6L337.5 379.4L336.6 378.5L337 377.1L341.4 375.4L342.1 374.4H344.1V372.7L345 371.9L347.5 372.5L350.4 373.7L352.1 374.9L353 376.2L355.7 378L357.9 380.2L359.2 380.9L361.7 381.5L363 382.8L366.3 383.7L371.2 383.9L373.7 383L374.8 381.6L377.7 381.2Z" fill="#ECECEC" stroke="black" stroke-width="0.1" stroke-linecap="round" stroke-linejoin="round"/>
<path id="HU" d="M413.3 343.2H414.8L416.2 345.5L418.4 346.3L419.3 347.4L421.6 347.8L422.5 348.5L423.2 350.2L421 352.5L416.4 353.6L414.5 356L413.3 357L413.4 358.7L412 360.1L411.3 362.6L409.9 364.1V365.3L408.3 368L408.5 369.3L406.4 370.8L404.9 375.5L403.6 376.4L401 376.1L398.5 378.1L397.1 377.6L393.9 378.5L392.9 378L390.1 377.7L389 377.9L386.1 377.5L385.1 377.8L383.6 379.4L381.4 380.4L379.8 379.9L377.7 381.2L374.8 381.6L373.7 383L371.2 383.9L366.3 383.7L363 382.8L361.7 381.5L359.2 380.9L357.9 380.2L355.7 378L353 376.2L352.1 374.9L350.4 373.7L347.5 372.5L345.6 370.3L344.2 367L341.8 366.9L343.6 365.2L346.1 364.7L346.4 362.9L345.3 361.3L345.8 360.6L345.4 359.1L347.6 357.9L348.1 356.5L347.6 355.4L345 354.7L346.3 353.3L348.8 354.2L352.7 353.9L352 351.9L352.6 350L353.2 349.3L355.3 349.6L359.5 352.3L361.1 353L365.8 353.1L372.8 352.7L373.4 351.7L372.9 350.4L373.3 349.4L374.7 348.7L379 348.3L381.4 347.7L382.4 346.2L383.1 346L386.6 347.4L391.6 344.9L393.2 341.4L395 341L397.7 341.1L400.2 341.7L404.8 341L406.2 341.9L408.4 344.1L409 344.3L413.3 343.2Z" fill="#ECECEC" stroke="black" stroke-width="0.1" stroke-linecap="round" stroke-linejoin="round"/>
<path id="IE" d="M71.6 257.4L72.3 258.5L70.1 258.9L71.6 264.1L72.2 265V269.1L73.1 272.3L73.2 274.8L71.9 276.6L71 278.7L70.8 280.5L69.2 282.6L67.7 283.5L69.3 285L66.5 285.8L63.9 285.5L62.6 286.3L58.7 286.5L55 287.2L53.3 289L50.8 289.7L49.8 290.7L47.5 291.5L45.8 290.3L44.8 290.5L45 292.6L42.1 293.9L40.3 294.2L39.3 294.9L33.5 296.3L31.6 295.8L28.3 296.6L27.1 296.5L28.7 294.7L30.3 293.4L26.5 294L25.1 294.5L24.5 293.9L27.7 292L24.4 292.1L21.4 291.7L21 290.7L23.9 288.4L26.3 287.5L26.2 286.6L21.1 286.7L21.6 285.6L23.3 284.6L25.1 284.5L26.6 285.1L27.7 284.3L27.1 282.6L31 280.3L34 280L37.3 279.3L40.6 278.5L38.2 277.3L35.9 279.1L33.3 279.4L31.4 278.9H29.3L32 276.9L33.6 275.2L32.8 274.5L34.8 272.2L38.4 271.2L36.8 269.9L32.9 270.1L31.5 268.8L28.9 268.9L29.3 267.7L25.8 267.5L26.3 266.5L25.7 265.4L28.5 264.8L28.3 262.8L30.2 262L32.2 261.6L32.3 260.5L30.3 260.3L28.3 260.7L29.1 258.6L28.3 257.6L27.9 255.9L27 254.9L29.8 254.7L31 254.2L35.7 254.3L37.6 255.6L39.3 254.4L44.1 255.3L44.7 252.7L48.5 251.2L49.7 249.2L46 249.6L42.4 248.6L43.1 247.8L45.2 247.1L47.1 245.5L46.8 244.4L48.5 241.7L51.6 240.9H54L55.6 240L56.8 242L55.8 243L56.4 243.9L57.6 243.1L57.1 241L58 239.7L59.9 239.4L60.5 238.6L63.7 240.3L61.2 241.8L60.7 242.5L58.8 243.4L57.8 245.7L56.6 247.3L54.4 248.1L52.8 248L52.6 248.8L53.6 250.2L50.7 251.1L49.7 252.5L52.4 254.5L52.6 255.5L54.7 255.9L55.5 256.6L58.4 256.9L60.8 255.1L60.3 254.2L62.2 252.6L63.5 253.1L65.3 255.8L66.7 256.3L66.6 257.8H69.5L71.6 257.4Z" fill="#ECECEC" stroke="black" stroke-width="0.1" stroke-linecap="round" stroke-linejoin="round"/>
<path id="IT" d="M344.9 501L343.7 503.5L340.9 507.8L339.4 512.9L339.7 514.9L341.3 516.3L340.6 516.8L342.2 518.6L342.3 519.9L340.5 521.8L340.1 523.5L340.2 525L337.3 524.4L335.9 524.7L332.2 523.3L330.3 520.5L327.3 518.5H324.3L322.9 518L320 516.1L317 514.7L314.4 512.6L312.7 512.2L311.2 511.2H308.3L306 509.6L304.7 507.3L306 503.6L307.4 502.8L308.3 501.6L310.6 503.9L312.4 503.1L313.8 501.5L316.2 501.6L316.7 502.5L318.1 502.8L320.6 504.4L322 504.8L325.4 503.8L328.4 504.2L331.2 503.7L332.9 503.1L334.1 502.1L335.5 501.8L339 502.1L341 500.9L341.8 501.1L343.8 499.9L344.9 501ZM266.6 459.5L267.3 460.4L269.1 465.4L268.5 467L267.2 469L268 471.8L267.4 483.3L266.8 486.2L265.9 486.6L263 485.4L261.5 485.7L260.3 485.1L260 488.1L258.2 490.2L255.2 490L254.5 489.4L252.1 485.6L251.7 481.3L252.3 480V477.5L253.4 477.4V475.7L251.6 474.5V472.6L252.3 471.2L252.2 468.6L251.4 467.7L250.6 465.4L248.4 463L248.5 459.6L251.9 460.2L253.2 459.9L256.3 458.4L258.4 455.9L259.8 455.4L261.3 453.6L262 454.5L264.2 455.3L265.4 456.8L266.3 457.3L265.6 458.7L266.6 459.5ZM274.9 428.7L275.2 430.1L272.7 430.6L271.6 429.5L274.5 429.3L274.9 428.7ZM312.8 372.1L312.6 373L309.3 375.3L310 376.7L312.3 377.4L310.7 379.5L311 380.5L312.3 380.7L311.9 382.7L313.8 383.8L315.3 385.1L315.5 386.4L314 386.5L314.7 385.9L312.7 383.7L310.7 384.6L307.5 383.7L305.4 385.7L303.9 386.1L302.2 387.2L299 388.4L297.2 388L296.2 388.7L295.8 391.8L296.6 392.4L298.1 395L299.8 396.1L299.1 398L298.2 398.7L296.9 398.2L296.6 399.9L297.5 404.4L298.9 407.6L300.1 408.9L302.8 411.1L305.5 412.2L310.6 415.9L313.4 417L314.1 417.7L315.9 420.5L317.5 423.7L319.3 428.8L320.6 431.3L322.9 434.2L327.7 438.3L332 441.2L336 443.1L339 443.4L346 443L348.6 443.7L349 444.9L348.6 445.8L345.7 447.9V449.6L347.2 450.8L354.3 454L361.5 456.6L363.7 458L366.4 460.1L372.8 463L373.9 464.4L377.9 467.4L379.7 469.8L380.2 471.6L378.7 476L377.1 475.5L375.2 474.2L372.1 468.8L367.1 468.3L364.2 467L363.5 465.6L361.2 465.2L359.9 466.1L358.5 468.1L357 471.1L355.5 475.4V477.1L356.6 478.8L359.5 479.8L361.9 481.3L363.5 482.9L363.8 486.7L364.7 488.8L363.8 490.1L361.9 489.8L359.4 490.5L357.7 491.9L357 493.3L357.5 496.7L357.2 498.1L353.9 500.6L352.3 503.1L351.3 505.4H347L345.9 503.9L345.8 501.7L346.4 500.4L348 499.7L348.9 496.9L348.4 494.9L349.5 493.3L352.3 492.6V489.7L350.9 488.4L349.5 483.3L347.1 479L345.7 475.2L344.6 473.4L343.2 472.4L339.5 472.1L334.9 469.5L334.6 468.4L335.2 467.3L334.1 464.5L332.1 462.8L329.5 463.4L328.3 463.3L328.2 461.8L326.2 460.5L323.5 460.3L322.8 459.6L320.2 455.6L318.5 453.9L316.2 454L312.3 453.1L310.3 453.8L307.1 451.2L304.3 450.3L298.6 445L296.8 443L293.3 440.8L291 437.6L289.2 436.4L285.2 435L284.9 433.7L281.8 430.6L280.1 429.6L278.8 427.5L276.3 427L276.4 424.3L275.2 420.8L273.5 418.6L272.3 413.3L271.5 411.8L269.7 410.7L265.7 409.5L260 406.1L258.9 406L255.5 404.7L253.4 404.5L250.8 405.7L247.7 408.9L245.2 412.3L244.3 412.9L240.9 414.1L237.9 414.6L237.7 413.1L239.8 410.5L239.5 408.5L236.2 409.1L231.1 406.7L230.2 405.8L230.1 404.4L229.4 403.1L230.8 400.6L231.6 399.9L231.1 398.2L227.9 396.8L226.4 393.7L227.2 393.3L229.1 393.5L230.8 392.2L232 391.9L232.8 389.4L231 387.8L229.3 385.2L228.4 384.6L228.3 383L230.9 381.3L232.3 382L234.7 381.5L237.3 380.5L240.4 381.3L242.8 379.9L244.4 377.7L243.8 376.2L247.2 373.3L248.2 373.9L248.4 376.4L250.8 378.4L253 379L252.6 380.2L253.9 381.4L254.8 382.8L256 382.1L255.3 380.4L255.5 379.4L257.7 376.8L258.2 375.7V372.8L260.2 372.7L261 374.8L263 375.6L265.9 374.5L266.6 374.6L268 376.5L269.2 376.2L267.7 372.7L268.3 370.9L269.6 370.6L270.6 371.5L272.5 371.7L272 369.9L272.5 366.8L275.5 367.1L276.4 367.9L278.5 368.3L279.6 367.9L280.8 365.7L282.2 365.1L285.6 364.8L288.7 365L293.4 363.5V365.8L296.5 369.3L297.6 369.8L306.2 371.3L310.2 371.6L312.8 372.1Z" fill="#ECECEC" stroke="black" stroke-width="0.1" stroke-linecap="round" stroke-linejoin="round"/>
<path id="LT" d="M450.2 233.9V235.7L449.5 238.8L453.4 239.8L452.1 240.8L451.7 241.9L448.1 241.8L447.1 243.8L446.3 244.4L443.7 245L442.6 248L443 250.3L442 251.8L441.5 253.8L443.4 254.3L444.3 255.4V256.4L442.3 256.6L440.6 254.3L439.6 255L437.5 255.5L436.1 256.7L434.1 256.5L433.3 259.1L431.5 259L428.2 260.3L426.6 259.4L422.9 259.7L421.3 260L418.4 259.6L417.6 256.6L416.5 255.7L412 253.5L409.7 252.8L409.1 253.4L407.8 251.4V249.3L408.8 246.2L407.5 244.9L406.1 244.3L405.2 243L399.5 242.9L397.1 242.3L393.2 240.9L391.2 239.7L389.4 239.9L388.8 238.7L389 237.1L387.9 234.7L386.3 231.8L385.6 228L388.4 226.3L392 224.4L396.7 223L402.6 223.5L406.9 223.4L407.9 224.3L409.5 223.6L414.4 224.1L416.7 224.2L420.4 225.1L425 224.7L426.7 223.4L429 223.2L431.4 226.1L437.5 227.1L438.4 227.5L443.8 230.6L446.4 232.7L447.9 233.4L450.2 233.9Z" fill="#ECECEC" stroke="black" stroke-width="0.1" stroke-linecap="round" stroke-linejoin="round"/>
<path id="LU" d="M217.7 317.1L218 319.3L219.5 320.9L222.3 322V323.4L221.4 324.3L220.8 327.3L219.5 326.6L217.5 327.2H216.1L214 326L215.1 324.3L213.1 321.9L213.3 320.2L214.7 317.7L216 316.4L217.7 317.1Z" fill="#ECECEC" stroke="black" stroke-width="0.1" stroke-linecap="round" stroke-linejoin="round"/>
<path id="LV" d="M453.9 206.6L455.8 206.9L456.3 208L459.5 209.7L460.2 211.9L459.4 213.5L459.1 216.6L460.9 216.3L461.9 216.9L462.2 218.1L463.9 220.2L465.2 221L467.1 225.2L466.8 226.9L465.5 227.1L464.1 227.9L461.6 230.3L461.2 232L458.1 231.9L455.1 231.5L454 231.8L452.8 233.3L450.2 233.9L447.9 233.4L446.4 232.7L443.8 230.6L438.4 227.5L437.5 227.1L431.4 226.1L429 223.2L426.7 223.4L425 224.7L420.4 225.1L416.7 224.2L414.4 224.1L409.5 223.6L407.9 224.3L406.9 223.4L402.6 223.5L396.7 223L392 224.4L388.4 226.3L385.6 228L384.8 225.2L384.2 219.7L384.3 216.9L386.2 215.3L387 214.1L387.6 209.6L390.1 206L392.5 205.6L395.6 204.6L399.1 203.7L400.5 205.6L405.4 208.6L406.6 209.6L408.9 213L413.3 214.8L416.4 214.2L420 211.8L421 210.7V209.6L419.8 204.9L418.7 202.9L418.8 201.6L427.2 198.8L428.7 199.8L429.8 199.1L435.4 201.6L437.7 202.1L438.3 202.8L441.8 205.5L444.6 206.6L448.6 205.4L452 206.4L453.9 206.6Z" fill="#ECECEC" stroke="black" stroke-width="0.1" stroke-linecap="round" stroke-linejoin="round"/>
<path id="MD" d="M493.7 388.6L491.7 386.3L492.6 385.6L491.2 380.6L491.1 378L492 373.2L491.5 370.3L490.1 368L488.7 365.1L485.7 363L484.4 361.3L482.3 359.5L479.8 356.3L478.3 355L475.3 350.1L472.8 347.1L470.3 345.5H468.2L468.4 344.9L470.7 343.5L471.4 343.7L475.4 343.8L476.6 342.8L477.4 343.1L479 342.1L482.5 343.1L486.1 345.5L488.6 345.8L489.2 347L494.8 347.6L496.2 349.5L497.6 350.5L499 349.8L500.4 351.2L501 353.5L500.4 356.6L501 357.8L503.3 359L506.2 361V363.4L507.1 365.3L509.1 366.6L511.2 367.4L512.2 369L512.4 371.9L515.3 373.6L514.7 374.3L511.8 374.7L510.6 373.4L509 374L506.9 373.2L505 373L502.9 372L500.4 373.6L500.9 375.7L501.9 377.4L501.5 379.4L499.2 381.1V382.4L496.7 385.3L497.2 386.7L496.8 387.7L494.8 387.9L493.7 388.6Z" fill="#ECECEC" stroke="black" stroke-width="0.1" stroke-linecap="round" stroke-linejoin="round"/>
<path id="MK" d="M426.1 437.2L429.4 440.4L432.8 442.2L434.5 445.5L435.4 446.5L434.9 448.2V452.4L432.9 452.7L432.7 454.8L429.8 455.8L426.5 455.2L423.5 455.6L422.7 455.9L421 458.4L418.6 459.7L416.3 459.1L415.4 459.7L410.8 460L409.5 458.9L407.9 459.1L406.6 456.7L405.4 455.6L404.2 453.4L404 451.5L403.3 449.5L404.1 448.7L403.8 446.6L404.3 444L406 444.3L406.5 443.5L406.7 440.9L410.1 439.4L411.1 439.3L412.7 440.5L414.2 438.6L416.3 438.2L418.5 437.9L420.5 437L422.4 437.3L424.7 436.5L426.1 437.2Z" fill="#ECECEC" stroke="black" stroke-width="0.1" stroke-linecap="round" stroke-linejoin="round"/>
<path id="ME" d="M384.7 418.3L385.1 419.5L387.7 421.2L389.6 423.2L392.6 424.8L394.7 425.3L400 428.2L400.1 429.2L398.5 429.6L398.3 430.3L396.3 430.7L397.2 432.2L397 433.5L393.6 434.7L392.8 432.6L391.7 432.3L388.5 437.6L387.7 437.9L385.2 437.7L386.8 439.6L388.5 440.4L388.8 441V444.1L386.7 442.9L385.8 441.1L382.7 438.2L379.2 436.2L379.3 435.2L377.7 435.3L376.5 433.4L377.6 432.4L377.7 431.6L376.6 430L376 427L376.5 426.3L378.2 426.1L378.1 424.6L378.6 422.9L380.6 421.2L382.9 421L381.5 418.8L384.7 418.3Z" fill="#ECECEC" stroke="black" stroke-width="0.1" stroke-linecap="round" stroke-linejoin="round"/>
<path id="NO" d="M200.3 166.3L200.4 168L199.4 167.9L198.7 166.8L198.5 164.8L199.2 164.3L200.3 166.3ZM198.5 155.2H196.7L197 153.9L197.9 153.6L198.5 155.2ZM231 123.3L228.7 123.1L227.7 122.3L230.5 121.5L231.2 122L231 123.3ZM234.6 118.7L234.3 117.8L237 117.2L237.9 118.2L234.6 118.7ZM262.6 102.1L258.4 102.4L258.1 101.3L260.2 100.5H261.4L262.6 102.1ZM269.4 91.6L267.4 91.9L267.5 90.8L269.3 90.5L269.4 91.6ZM273.5 85.9L273.4 84.8L274.4 83.6L275.4 84L275.1 85.5L273.5 85.9ZM276.6 61L275.1 61.7L276.2 59.1L277.3 58.4L277.7 59.9L276.6 61ZM285.1 55.8L287.4 56L286.9 56.8L285.5 57.1L284.4 57.9L282.5 58.1L280.6 59.1L279 59.4L278.6 58.2L279.5 57.2H280.8L281.8 56L285.1 55.8ZM297.5 46.8L299.7 48.9L299.4 50.4L298.2 51.1L294.9 51.2L293.3 50.3L291.1 50.9L289.5 49.8L291.1 48.4L293.7 48.8L294.2 47.1L295.9 47.4L296.3 45.9L297.5 46.8ZM303.8 51.8L305.1 50.7L306.6 50.3L307.2 48.1L309 47.6L310.6 48.6L311.5 49.8L311.3 50.9L308.2 52.1L305.7 54.1L304.1 53.9L303.4 54.6L301 55.2L299.3 54.3L298.4 55.2L297 55.6L295.8 55.2L292.9 56.7L290.1 57L289.1 55.9L292.2 54L297.3 53.4L300.2 51.1L300.6 48.6L301.2 47.7L299.9 47.1L300.1 45.4L302.5 43.7L303.8 42.3L305.3 42L306.2 43.1L305.1 44.5L303.5 45.7L304.6 47.2L305.2 49.6L303.8 51.8ZM319.3 38.1L320.7 38.9L322.2 38.6L324.5 39.3L325.5 40.8L324.3 41.7L324.7 43.4L320.9 43.9L320 43.4L318.5 44.3L317.1 45.7L314.9 45.1L315.1 43.5L314.8 41.2L315.5 40.7L318.4 41L318 39L319.3 38.1ZM443.3 35.5L441.5 35.9L441.7 34.1L443.3 35.5ZM350.9 31.7L349.6 32.1L347.8 31.8L347.1 30.8L349.3 29.8L351 30.1L350.9 31.7ZM335.8 32L336.8 32.7L338.3 32.2L339.4 33.2L338 34L337.2 35.2L335.2 35.3L332.3 37.6L332.2 38.4L327.2 38.9L325.7 38.6L327.4 35.9H329.1L330.8 35.1L330.5 34.3L333 32.3L333.6 30.6L335 29.6L335.8 32ZM340.6 30L342 30.2L343.3 31.8H341L339 30H340.6ZM377.9 25.7L378.4 26.8L375.1 28.9L373.5 29L371.4 27.8L371.5 27L373.4 26.1L374.3 26.2L377 24.8L377.9 25.7ZM381.8 25.4L380 25.9L378.3 25L378.1 23.4L378.9 23.1L382.1 24.3L381.8 25.4ZM375.4 22.2L375 23L372.3 25.1L370.1 25.8L368.3 25.5L367.5 26.1H365.5L363.5 25.5L361.5 24.3L365 24.2L365.6 23.7H367.1L369.9 23.3L371 23.6L373.1 22.2H375.4ZM436 45.7L434.3 44.4V43.7L437.5 40.8L438.2 39.8L435.6 37.1L432 36.3L427.8 35.2L423.6 33.2L421.8 32L418.9 32.3L415.4 33.9L414.5 34.1L410.7 33.7L408.6 33.9L406.9 35.7L404.3 37.4L403.6 41.2L403 42.9L403.7 46.1L402.2 47.5L400.1 47.8L398.5 49.1L398 50.8L396.7 51.4L394.1 50.6L390.2 49.8L386.6 48.7L385.1 48.6L383.9 49.8L380.2 50.7L378.4 50.8L377.6 50.3L370.7 49.7L369.3 47.9L361.4 42.4H357.8L355.9 43.5L356.9 44.9L356.4 45.5L354.5 45.1H352.4L351.9 45.5L346.8 45.7L349.4 47.3L349.5 49.3L348.1 51.2L346.5 52.1L349.4 53L346.9 54.6L345.9 54.5L337.3 52.8L334.4 52.7L330.3 51.8L328.2 52.3V53.1L329 56.7L326.9 59.8L320.6 58L319.1 58.9L315.4 60.8L313.9 64.3L312.8 65.4L310.1 66L309.6 67.1L312.3 69.4L313.3 70.7L313.1 72.1L311.6 73.1L308.3 76L305.3 78.9L304 79.8L305 82.3L301.7 83.8L299.3 84.3L295.5 84.7L296.9 88.6L296.3 91.3L296.2 96L292.9 101L288.5 106L293.2 107.6L294.3 110.5L294.4 111.7L292.7 113.9L285.6 113L282.3 113.4L279 114.9L275.5 118.7L274.3 119.7L274.8 121.2L272.8 124L275.5 128.1L274.4 129.2L275 132L274.9 133.8L277.4 138.2V139.8L276.5 146.2L280.3 148.3L281.5 148.7L284.9 151.4L284.5 153.3L283.2 155.8H280.8L279 156.4L279.3 158L282.4 162.9L282.9 164.3L282.3 166.4L282.2 169.2L280.3 171.2L279 172L276.4 172.7L275.5 175.1L274 176.6L275.6 181L275 184.9L274.3 186.3L272.4 186.5L271.4 184.7L271 183.7L265 182.5L262.7 179.6L262.3 176.5L259.8 177.7L260.4 178.8V181.1L257.9 185L256.8 184.8L255.5 185.6L254.2 185.8L253.6 184.8L252.5 185L251.7 186L248.3 187.3L249.3 188L247.6 189L247 189.9L244.3 191.4L240 195.3L237.7 196.4L236.1 197.6H234.7L232.9 198.5L228.3 199.4L225.2 199L223.1 199.4L222 198.7V197.6L220.8 197.5L220 198.7L218.4 198.3L219.1 195.9L216 195.8L212.2 194.2L211.3 193.4L208.2 192.1L206.8 190.7L206 189.1L206.3 185.5L206.9 185L209.6 185.8L212.4 187.1L212.3 185.9L209.9 184.3L210.7 182.5L210.5 180.9L213.1 178.8L212.7 178.1L209.3 180.1L206.2 181L205.1 182.2L204 182.8H201.9L201.4 181.9L201.9 178.6L203.1 175.9L204.9 174.9L208.3 175.6L209.3 174.6L210.6 174.4L213 173.2L208.9 173.7L207.7 172.7L210.5 170.3L211.7 168.9L212 167.4L214.2 165.7L216 164.9L217.6 165.5L219.1 163.6L214.1 164.7L212.1 165.8L209.4 168.6L209.2 169.7L207.2 170.6L205.7 172.1L205.1 173.3L202.3 175.2L200.9 175.5V173.1L202 171.1L201.7 169.5L204.9 169.7L206.7 168.5H204L202.6 167.8L201.4 166.3L200.8 164.4L201.9 162.6L199.7 160.6L199.2 158.4L199.1 155.9L200 155.4L202.1 155.8L204.5 155.6L209.7 154.7L213.1 155.3L214.5 155.2L216.5 154.5L218.4 154.4L220.6 155.6L221.3 155.1L226.7 153.9L223.7 152.4L223.8 153.8L220.2 154.1L217 153.5L215.7 152.9L215.2 154.2L214.1 154.5L210.7 154L206 154.3L203.9 155L202.5 154.9L200 153.7L199.1 152.8L198.8 150.2L201.6 149.9L199.7 147.6L197.8 146.3L197.6 144.9L198.3 143.6L199.8 143.8L203.6 143.7L209.6 145.2L214.5 144.9L213.7 144.3H210.8L203.6 143L201.4 143.1L200.2 142.8L199.5 141.8L199.9 139.9L201 139.5L202.2 140.1L204.1 137.8L206 136.8L208 136.3L210 137.3L211.3 137.2L215.3 136.4L214 135.9L210.5 136.4L210.3 135.9L212.7 133.6L216.9 133.2L222.8 133.7L225.1 134.5L225.5 132.7L230.8 131.3L224 132.1L222.2 131.6L217.3 132.3L217.2 131L219.5 128.7L223.6 127.8L225.5 126.7L228.6 126.5L231.2 126.8L232.4 128.1L236.8 129.8L231.7 125.8L232.8 124.1L236.1 123.7V122.1L233.9 121.8V120.6L235.8 119.7L238.6 119L241.8 119.8L241.2 121.1L242.1 121.6L243.8 120.1L247.7 119.3L250.5 121.4L251 122.5L252.1 122L254.8 121.5L257.5 121.8L259.3 121.6L258.3 120.3L258.7 119.3L261.1 118.3L262.8 118L265.4 116.8L264.6 115.8L263.2 115.5L266.1 114L264.4 113.4L262 114.3L260.4 115.2L261.9 116.2L260.8 117.3L254.7 120.1L251.7 120.9L250.3 120.8L248.4 118.3L246.3 118.2L247.6 116L249.2 115.2L250.6 112.9L252.9 111.6L256.1 108.3L258.9 107.2L259.8 106.1L262.8 104.6L265.8 103.7L266.1 102.7L263.4 103.6L263.8 101.5L265.2 100.5L272 97.7L273.6 99L275.7 98.8L278 97.2L277.7 96.5L275.6 97.5H274.1L273.7 96.9L271.6 96.4L271.3 95.2L272.6 92.4L276 89.1L276.5 87.8L277.8 87.1L279.5 87.3L279.3 86.2L277.2 85.1L283.4 84H286.4L288.8 83.1L289.3 82.1L282.9 83.2L280.5 83.3L279.7 80.6L279.9 79.1L281.8 76.9L283.2 76.7L284.9 75.6L285 74.1L287.3 73.3L289.4 71.2L291.7 70.7L293.1 70.9L296.1 70.2L302.7 70.1L302.8 69.5L296.5 69.2L293 69.4L292.6 68.8L295.4 66.1L297.4 65.1L299.1 65.3L300.9 66.3L301.5 65.5L299.9 64L300.6 62.5L298 63.6L296.2 63.9L295.3 61.9L297.6 59.9H299.9L300.2 58.4L303.5 57.1L305.4 56.9L306.9 56.3L307.5 56.7L308.4 59L309.9 59.3L310.9 58.5L309.6 57.4L308.5 55.6L310.5 54.1L312.8 53.9L315.4 54.6L317.7 54.4L318.6 53.2L312.3 53.1L311.5 52.2L312.7 51L314.9 50.2L317.4 50.1L319.8 48.7L320.7 47.6L321 46L322.4 44.7L326.3 43.9L325.7 41.7L326.5 40.3L327.5 39.7L329.6 41.2L331.4 41.7L330.9 40.3L331.2 39.1H333.3L334.3 38.6L334.6 37.3L336 36.1L340.7 35.4L341.2 37.9L341.9 39.3L342.7 36.5L344.3 34.4L346.7 33.5L347.6 34.6L347.2 38.9L345.3 41.3L346.8 41.1L349.3 38.8L349.9 37.6L349.2 34.8L349.8 34L353.3 33.9L355.2 34.3L355.9 32.8L357.6 32.7L359.4 33.6L363.5 35L362.2 32.8L361.2 32L359.1 31.5L356.9 30.5L358.1 29.5L360.5 29.8L362.5 29L364.7 28.8L365.8 29.4L366.6 28.4L369.1 27.9L371.9 28.8L373.5 31.5L375.9 32.9L375.8 31.5L376.4 29.6L378.7 27.6L380.8 26.6L382.2 26.5L385.1 23.1L383.5 22.1L386.8 19.8L387.9 19.7L393.3 21.8L394.8 20.9L398.2 21.7L397.4 22.7L394.3 25.6L393.8 26.4L393.7 28.6L392.5 30L393.3 31.4L394.9 31L396.7 29.7L396.8 28.4L401.1 24.7L403 22.6L405.3 20.9L406.8 20.6L407.7 21.7L407.5 23.2L407.7 27.5L411.4 26.1L412.5 23.1L413.6 22.4L412.8 21L413.2 19.9L415.5 18.6L417.7 19L421 19.3L423.7 20.1L423.9 21.5L423.1 22.4L420.2 23.5L420.9 24.2L422.9 23.6L423.8 29.1L424.7 27L425.7 26.3L425.8 24.8L426.6 22.9L428.4 21.6H431.1L434.4 23.3L436.9 23.6L438.7 24.4L441.1 23.7L443.1 24.7L443.2 25.7L447 26L450.8 27.6L451.4 29.2L447 30.2L445.2 31.2L441.9 31.6L430.4 30.9L430.8 31.6L439.1 33.1L439.7 33.6L440.1 35.7L441.9 36.4L445.4 36.2V34.9L448.6 35.5L452.4 35.7L453.5 37.4L453.2 38.9L450.8 39L446.6 37.6L446.2 39.9L445.1 40.8L439.3 42.1L438.2 44.7L436 45.7ZM395.5 18L399.2 18.5L401.4 19.9L397.8 20.4L396.1 20.3L394.1 18.5L395.5 18Z" fill="#ECECEC" stroke="black" stroke-width="0.1" stroke-linecap="round" stroke-linejoin="round"/>
<path id="PL" d="M409.1 253.4L409.7 252.8L412 253.5L416.5 255.7L417.6 256.6L418.4 259.6L420.5 264.7L423.4 269.6L425.1 273.2L426 277.1L425.4 278.7L421.4 280.4L420.6 280.9L418.6 283.6V284.8L421.9 286.1L423.7 287.1L424.5 288.1L424.3 290.5L424.7 291.6L423.9 293.1L424 294.4L425 296L426.2 297.8V299.1L428.9 301.9L430.8 304.7L432.2 305.7L431 307L432.8 309.6L432.9 310.9L431.7 312.7L428.7 313.2L423.9 317.8L421.5 320.5L418.1 324.9L417.5 325.9L419 329.7L418.9 331.5L420.8 332.9L420.4 333.8L417.1 333.1L416.2 332.9L410.5 331L409.7 329.6L408.7 328.9L405.6 327.9L402 327.6L398.8 327.8L397.4 329.3L395.6 329.2L393.2 328.2L390.2 328.3L387.9 329.3L386.8 331.4L385.1 330.8L383.7 331.2L383.1 328.5L381.7 328.1L378.7 325.1L376.5 326.4L375.5 328.1H373.3L372.8 326.6L371.5 326.4L371 324.8L368.2 322.6L367.7 320.8L365 320L364.5 320.2L361 318.4L359.2 319.4L358.2 318.8L355.5 316.5L356.9 316V314.4L353.3 315.1L350 313.2L347.8 312.6H346.5L348.2 315L344.7 317.5L343.7 317.1L342.2 315.2L340.2 313.4L338.6 312.5L340.2 311.3L340.9 310.2L339.1 309L335.9 309.7L335.1 308.8L332.4 307.7L327.8 306.6L326.8 305.5L326.5 304.4L323.2 303.6L323.3 305.5L321.2 305.9L322.8 302.3L323.2 300L321.6 296.8L319.4 295.9V294.3L317.5 291.2L318.3 290.1L319 287.5L318.2 285.6L316.2 283.3L316.8 280.7L315.4 279L312.1 276.9L310.5 275.5L311.2 273.9L313.1 272.1L313.4 269.4L311.6 265.3L310.9 262.7L313.7 263.6L314.4 263.1L314.3 261.3L310.2 260.6L310.1 259.4L312.1 259.8L315.9 258.4L322.4 256.6L329.3 254.9L332.6 254.4L334.6 252.2L336.5 250.5L340.3 249.8L341.6 249L344.4 247.8L351 246.6L356.5 246.2L361.9 248.5L361 248.8L358 247.6L360.2 251.1L361.3 252.3L363.3 253.2L365 253.5L369.9 253L372.1 251.9L372.6 252L379.2 252.4L402.1 253.3L409.1 253.4Z" fill="#ECECEC" stroke="black" stroke-width="0.1" stroke-linecap="round" stroke-linejoin="round"/>
<path id="PT" d="M48.3001 517.3L47.1001 517.5L42.6001 520H41.3001L38.8001 518.9L34.3001 518.5L32.8001 518.2L31.0002 518.9H29.5002L28.4001 519.9L27.6001 519.6L28.6001 517.5L30.2001 513.4V510.8L30.6001 508.6L30.3001 506.5L29.6001 505.1L30.7001 501.6V499.8L29.8001 497.5L32.6001 497.8L30.9001 496.4H29.4001L27.1001 497.3L25.6001 497.4L25.7001 496L25.2001 494.2L27.2001 493.6L28.8001 491.9L28.5002 490.3L27.3001 491.4L26.7001 492.8L23.9001 493.5L22.4001 493V491.1L23.0002 489.4L23.4001 487.1L24.2001 484.9L24.0002 483.5L25.6001 482.2L27.0002 480.3L31.3001 471.4L30.7001 470.4L32.4001 463.8L33.6001 461.5L34.2001 457.2L34.0002 455.2L33.3001 453.2L32.6001 448.9V447.5L31.7001 445.7L31.8001 444.7L33.2001 443L34.4001 441.9L36.3001 441L40.4001 440L41.4001 441.8L40.1001 443.7L41.0002 445L44.0002 443.9L46.9001 443.8L49.1001 444.6H50.5002L53.0002 443.7L53.8001 442.3L55.3001 442.8L60.5002 442.9L61.2001 444L61.3001 447.1L63.2001 447.3L65.1001 448.2L65.4001 449.3L62.9001 451.8L60.8001 452.9L59.2001 454.3L58.1001 455.9L56.1001 457.5L56.9001 459.5L57.3001 463L56.9001 466.8L57.3001 467.9L54.6001 470L54.4001 471L55.8001 472.3V474.2L54.1001 477.7L53.1001 478.2H48.8001L47.7001 478.5L48.8001 480.4L50.2001 481.6L50.5002 483.5L52.1001 486.7L53.8001 487.1L54.3001 487.9L53.7001 490.3L50.5002 493.3L49.6001 497.3L52.6001 501.6L54.3001 501.4L53.6001 503.8L51.5002 504.4L48.0002 508.7L47.2001 510.9L48.3001 517.3Z" fill="#ECECEC" stroke="black" stroke-width="0.1" stroke-linecap="round" stroke-linejoin="round"/>
<path id="RO" d="M493.7 388.6L495.2 390.2L497 391.1L501 392L501.6 390.8L502.5 391.1L504.1 390.6L506.3 389.3L508.5 389.1L510.7 389.8L512.6 391.6L512.4 395.9L511.7 398L505.5 399.3L505.9 398.7L505.2 396.7L504.2 395.7L503.3 396.8L503.9 398.5L503.2 399.9L503 402.3L503.6 403.2L502 405.2L501.5 406.5L502.3 411.3L501.9 415H499.9L497.3 414.5L495.1 413.8L492.6 411.2L490.9 411.7L490 411.1L486.8 410.7L482.3 408.4L479.4 408.8L475 409.7L471.8 410.9L468.5 413L467.3 414.6L465.7 415.5L463.4 416.1L459.2 415.9L449.8 414.2L447.3 414.7L443.8 414.3L438.5 413.3L434.6 413L430.9 413.6L430 411.8L431.8 409.8L427.5 407.3L426.7 406.1L425.1 405.2L424.6 403.5L427.1 401.7L424.1 400.1L422.4 400.6L420.7 402.4L419.4 402.6L418.4 401.4L416.9 400.7L413.4 400L411.9 398.8L409.8 398.2L410 397.6L411.8 396.8L409.5 395.7L411 393.7L410.1 392.6L407.5 391.8L403.7 389.9L401.5 388.1L401.1 384L400.3 384.2L398.5 382.2L395.6 380.5L393.9 378.5L397.1 377.6L398.5 378.1L401 376.1L403.6 376.4L404.9 375.5L406.4 370.8L408.5 369.3L408.3 368L409.9 365.3V364.1L411.3 362.6L412 360.1L413.4 358.7L413.3 357L414.5 356L416.4 353.6L421 352.5L423.2 350.2L425.3 349.3L426.2 348.1H426.9L429.6 349.6L432.3 349.5L439.2 350.9L442.8 350.2L444 350.5L448.3 353.8L450.4 353.3L451.4 352.1L454.8 350.8L463.2 349.6L464.3 347.7L464.5 346.3L468.2 345.5H470.3L472.8 347.1L475.3 350.1L478.3 355L479.8 356.3L482.3 359.5L484.4 361.3L485.7 363L488.7 365.1L490.1 368L491.5 370.3L492 373.2L491.1 378L491.2 380.6L492.6 385.6L491.7 386.3L493.7 388.6Z" fill="#ECECEC" stroke="black" stroke-width="0.1" stroke-linecap="round" stroke-linejoin="round"/>
<path id="RS" d="M393.9 378.5L395.6 380.5L398.5 382.2L400.3 384.2L401.1 384L401.5 388.1L403.7 389.9L407.5 391.8L410.1 392.6L411 393.7L409.5 395.7L411.8 396.8L410 397.6L409.8 398.2L411.9 398.8L413.4 400L416.9 400.7L418.4 401.4L419.4 402.6L420.7 402.4L422.4 400.6L424.1 400.1L427.1 401.7L424.6 403.5L425.1 405.2L426.7 406.1L427.5 407.3L426.6 408L426.4 409.9L424.3 410.9L423.9 413.2L424.5 415.6L426.9 419.5L429.8 421L431.1 422.6L432.7 423.6L432.4 425L430.8 426.7L429.7 428.3L427.9 428.4L426.8 429V432.3L428.2 435.2L427.1 436.9L426.1 437.2L424.7 436.5L422.4 437.3L420.5 437L418.5 437.9L416.3 438.2L415.7 436.9L416.7 436L417.9 432.8L418.1 431.6L413.4 430.4V429.1L411.2 427.9L411 427.2L408.7 425.1L405.9 423.8L404.8 422.5L403.1 423.4L403.7 425L403.3 426L401.6 427.3V428.7L400.1 429.2L400 428.2L394.7 425.3L392.6 424.8L389.6 423.2L387.7 421.2L385.1 419.5L384.7 418.3L385.4 417.5L387.9 417.8L388.1 415.6L384.9 411.9L385.4 411.1L388.5 411.2L388.8 410.4L385.5 407.5L383.1 406.3L382.6 405.5L382.7 402.9L384.3 400.2L384.8 397.7L383.3 396.9L380.5 397.6L381.5 396L380.8 393.4L382.5 393L384.8 392.9L383.9 391.4L380.9 390.4L379.7 389.4L380.1 387.4L378.8 387L378.6 385.4L377 382.7L377.7 381.2L379.8 379.9L381.4 380.4L383.6 379.4L385.1 377.8L386.1 377.5L389 377.9L390.1 377.7L392.9 378L393.9 378.5Z" fill="#ECECEC" stroke="black" stroke-width="0.1" stroke-linecap="round" stroke-linejoin="round"/>
<path id="SK" d="M417.1 333.1L415.6 336.1L414.8 339L413.2 340.7L413.3 343.2L409 344.3L408.4 344.1L406.2 341.9L404.8 341L400.2 341.7L397.7 341.1L395 341L393.2 341.4L391.6 344.9L386.6 347.4L383.1 346L382.4 346.2L381.4 347.7L379 348.3L374.7 348.7L373.3 349.4L372.9 350.4L373.4 351.7L372.8 352.7L365.8 353.1L361.1 353L359.5 352.3L355.3 349.6L353.2 349.3L350.9 346.4L349.3 343.5L349.2 342.7L350.1 340.3L351.2 337.5L352.6 336.3L356.2 336.8L357.9 336.6L359.4 335.9L361.5 334L363.1 333.2L363.8 330.2L366.1 329L366.7 328.2L368.7 326.7L371.5 326.4L372.8 326.6L373.3 328.1H375.5L376.5 326.4L378.7 325.1L381.7 328.1L383.1 328.5L383.7 331.2L385.1 330.8L386.8 331.4L387.9 329.3L390.2 328.3L393.2 328.2L395.6 329.2L397.4 329.3L398.8 327.8L402 327.6L405.6 327.9L408.7 328.9L409.7 329.6L410.5 331L416.2 332.9L417.1 333.1Z" fill="#ECECEC" stroke="black" stroke-width="0.1" stroke-linecap="round" stroke-linejoin="round"/>
<path id="SI" d="M347.5 372.5L345 371.9L344.1 372.7V374.4H342.1L341.4 375.4L337 377.1L336.6 378.5L337.5 379.4L337.7 381.6L337.3 382.7L335.2 383.3L333.1 384.3L334.1 385.4L333.4 386.1L334.2 388.4L333 388.8L331.4 388.6L329.4 387.9L328.1 388.4L326.6 387.7L324 385.6L322.8 387.8L322.2 388.1L318.6 388.2L317.5 387.7L316.1 389L312.8 388.2L312.3 387.6L314 386.5L315.5 386.4L315.3 385.1L313.8 383.8L311.9 382.7L312.3 380.7L311 380.5L310.7 379.5L312.3 377.4L310 376.7L309.3 375.3L312.6 373L312.8 372.1L317.8 373L322.8 373.7L325.8 372.5L326.8 371.2L328.7 370.5L331.3 370.3L334.1 370.5L336.4 369.4L338 369.2L340.4 369.7L340.5 367.8L341.8 366.9L344.2 367L345.6 370.3L347.5 372.5Z" fill="#ECECEC" stroke="black" stroke-width="0.1" stroke-linecap="round" stroke-linejoin="round"/>
<path id="SE" d="M333.4 224.8L331.9 224.5L331.6 220.7L333.6 216.1L334.6 215.8L337.3 209.3L337.8 211.3L336.3 214.5L336 216.7L335.4 217.2L333.4 224.8ZM359.6 202.1L358.3 203.5L356.9 204L357 207.3L358.5 208.5L357.2 209L356.5 210.8L354.7 211.4L353.2 213L352.9 214.6L350.8 215.5L352 213.1L351.1 212.4L349.7 210.3L350.1 209.4L349.5 206.2L352.2 203.3L353.5 202.2L356.8 201.2H358.1L359.6 202.1ZM396.4 89.1L393.7 89.4L391.5 88.8L390.5 89.1L386.7 89.4L385.6 90.1L383.5 89.4L381.5 88.2L379.5 89.3L377.9 88.3L376.9 90.2L377 92L375.2 91.8L375.5 92.9L373.5 94.4L370.3 94.6L371 96.1L370.1 96.8L371.1 98.5L369.8 100L367.7 101.9L367.2 102.9L368.9 104L370.5 106.5L372.1 107.6L371.7 108.8L369.6 109.9L367.4 111.6L365.4 115.9L362.3 117.2L359.9 118.8L356.9 119.5L354.5 121.7L352.7 120.9L351.2 121.4L350.2 123.2L348.3 124.7L345.9 124.5L346.1 125.3L343.8 125.6L342.8 129.6L340.6 130.2L339.9 131L339 130.4L336.9 130.5L338.5 133.3L336.8 135.1H335.6L334.1 135.8L332.2 135L332 136.2L332.8 137.5L334.1 138.5L334 139.8L333.1 144.1L333.8 145.9L331.7 147.1L330.9 148.2L331.5 149.9L331.4 151L332.1 152.9L332.9 157.1L334 159.1L333.9 160.7L335.2 161.6L337.3 161.5L338.7 163.1L341.8 162.3L342.6 163.4L345.5 165.6L347.2 165.9L349.1 167.1V168.6L352 169.6L353.9 171.6L354.7 173.2L354.6 174.2L352 175.7L350.7 177L346.9 179.1L346.3 179L344.2 180L346.2 180.6L347.6 179.9L350.2 179.3L351.6 180.5L349.4 181L349.1 182.6L348.3 183.6L346.3 184.3L343.5 185.8L339.5 187.2L338.4 188.4L335.8 189.4L334.5 190.2H330.7L327 190.1L328 191L328.9 190.8L332.5 191.2L334.2 192.5L331.2 193.4L332.9 196.6L332.2 197.4L332.6 200.9L331.5 201L331.2 202.4L331.8 204.9L332.8 207L332.7 208L331.2 210.4L332.1 213.3L330.6 218.6L328.7 221.7L327.4 225.8L325.6 227.2L323.2 226.3L319.8 226.8L316.6 226.5L313.6 226.7L312.8 227.1L313.5 228.5L311.2 228.3L309.5 229.4L307.5 231.5V233L309.4 236L307.7 238H306.6L303.4 237.5L297.9 238.7L292.8 237.7L293.3 236.7L293.5 233.6L292.9 231.9L291.6 230.8L288.5 227L287.3 224.7L289.7 225.6L290.7 225.1L288.9 222.5L291.1 222.4L291.8 221.4L291.2 219.9L289.3 219.3L287.4 216.9L285.6 215.7L282.1 211L280.8 207.8L279.7 208.1L278.5 204.4L276.8 203.8L276.2 200.1L274.4 199.7L273.1 198L272.7 194.8L271.5 194.2L270.7 192.8L269.9 189.8L269.6 187.1L268.7 185.3L269.2 184.1L270.3 183.9L271.4 184.7L272.4 186.5L274.3 186.3L275 184.9L275.6 181L274 176.6L275.5 175.1L276.4 172.7L279 172L280.3 171.2L282.2 169.2L282.3 166.4L282.9 164.3L282.4 162.9L279.3 158L279 156.4L280.8 155.8H283.2L284.5 153.3L284.9 151.4L281.5 148.7L280.3 148.3L276.5 146.2L277.4 139.8V138.2L274.9 133.8L275 132L274.4 129.2L275.5 128.1L272.8 124L274.8 121.2L274.3 119.7L275.5 118.7L279 114.9L282.3 113.4L285.6 113L292.7 113.9L294.4 111.7L294.3 110.5L293.2 107.6L288.5 106L292.9 101L296.2 96L296.3 91.3L296.9 88.6L295.5 84.7L299.3 84.3L301.7 83.8L305 82.3L304 79.8L305.3 78.9L308.3 76L311.6 73.1L313.1 72.1L313.3 70.7L312.3 69.4L309.6 67.1L310.1 66L312.8 65.4L313.9 64.3L315.4 60.8L319.1 58.9L320.6 58L326.9 59.8L329 56.7L328.2 53.1V52.3L330.3 51.8L334.4 52.7L337.3 52.8L345.9 54.5L346.9 54.6L349.4 53L346.5 52.1L348.1 51.2L349.5 49.3L349.4 47.3L346.8 45.7L351.9 45.5L354.8 46.3L355.2 47.2L358.1 48.3L362.9 50.6L367.1 52.4L375.4 54.1L378.9 55.9L380.1 57.5L381.5 57.6L383.4 59.1L385.2 60L384.1 61L384.5 63.4L385.2 64.8L384.9 66.7L387.7 67.1L388.3 68.4L387.3 69.2L387.2 70.3L388 71.9L391.3 74.5L391.9 75.4L391.2 76.8L391.3 78.6L389.8 79.9V81.2L391.1 83.8L392.9 84.4L394.8 86.6L396.4 89.1Z" fill="#ECECEC" stroke="black" stroke-width="0.1" stroke-linecap="round" stroke-linejoin="round"/>
<path id="UA" d="M539 377V377.6L535.1 376.8L534.2 375.9L539 377ZM512.6 391.6L510.7 389.8L508.5 389.1L506.3 389.3L504.1 390.6L502.5 391.1L501.6 390.8L501 392L497 391.1L495.2 390.2L493.7 388.6L494.8 387.9L496.8 387.7L497.2 386.7L496.7 385.3L499.2 382.4V381.1L501.5 379.4L501.9 377.4L500.9 375.7L500.4 373.6L502.9 372L505 373L506.9 373.2L509 374L510.6 373.4L511.8 374.7L514.7 374.3L515.3 373.6L512.4 371.9L512.2 369L511.2 367.4L509.1 366.6L507.1 365.3L506.2 363.4V361L503.3 359L501 357.8L500.4 356.6L501 353.5L500.4 351.2L499 349.8L497.6 350.5L496.2 349.5L494.8 347.6L489.2 347L488.6 345.8L486.1 345.5L482.5 343.1L479 342.1L477.4 343.1L476.6 342.8L475.4 343.8L471.4 343.7L470.7 343.5L468.4 344.9L468.2 345.5L464.5 346.3L464.3 347.7L463.2 349.6L454.8 350.8L451.4 352.1L450.4 353.3L448.3 353.8L444 350.5L442.8 350.2L439.2 350.9L432.3 349.5L429.6 349.6L426.9 348.1H426.2L425.3 349.3L423.2 350.2L422.5 348.5L421.6 347.8L419.3 347.4L418.4 346.3L416.2 345.5L414.8 343.2H413.3L413.2 340.7L414.8 339L415.6 336.1L417.1 333.1L420.4 333.8L420.8 332.9L418.9 331.5L419 329.7L417.5 325.9L418.1 324.9L421.5 320.5L423.9 317.8L428.7 313.2L431.7 312.7L432.9 310.9L432.8 309.6L431 307L432.2 305.7L430.8 304.7L428.9 301.9L426.2 299.1V297.8L425 296L424.9 294.6L426 294.1L427.9 294.4L429 294.9L430.9 293.7L432.5 292.1L433.3 290.7L439.2 290.2L441.5 289.7L443.9 289.6L451.7 290L458.2 291.5L464.3 292.4H466.6L468.4 294.5L469.4 294.8L472.4 294.7L473.5 295.1L474.3 296.5L475.5 294.8L477.4 295.3L479.3 294.6L484.4 295.6L485.2 296.9L486.2 297.2L486.8 296.1L490.6 294.5L493.1 297.5L493.7 298L496 297.2L503.1 296.6L505.1 297.7L505.6 298.9L508.3 299.8L509.1 298.4L507.3 294.8L508.3 291.5L509.1 290.3L511.3 288L512.4 287.5L514.1 287.9L515.5 287.1L520.5 287.2L523.1 288L524.8 287.9L526.6 287L527.1 284.6L528.7 284L532.4 284.9L533.4 284.8L536.1 283.6L537.7 283.4L539.7 283.7L543.1 283.5L545.6 284.9L547 286.3L548.7 289L552.7 292L552.6 293L549.7 293.5L551 295.4L551.5 297.4L552.7 299.1L552.3 300.1L555.4 300.2L558.3 301.2L562.4 300.7L563.9 302.9L565.8 303.1L566 304L567.4 306.8L568.3 307.9L568.1 309.7L568.6 310.7L570.5 312.3L571.2 313.3L572.3 313.7L574.6 312.3L577.4 312.7L580.1 314.7H582.4L584.1 315.8L585.5 314.5L589.8 313.6L592.1 312.6L593.1 312.7L595.4 314.5L595.9 315.7L597.4 317.3L602.1 320.2L603.4 319.6L604.3 318.1L606.9 319.5L609.3 319.7L612.9 321.6L614.3 321.7L615.9 321.1L617.9 322.9L619.8 323.1L624.2 325.4L627.1 325.1L628.1 325.9L628 327.6L629 328.5L628.9 331.1L627.2 333.2L624.9 334L626 335.5L629.1 336.4L628.2 337.3L626.8 337.1L626 338.1L625.7 340.4L628.2 341.1L629.4 343.9V345L630.6 345.3L629.3 350L629.2 351.8L625 352L619 351.7L618.1 351.9L617.2 353.8L614.9 355.2L613.2 355.4L612.4 356.2V358.5L612 359.8L613.1 360.5L612.4 362.1L612.9 363.4L612.4 363.5L608.1 363.3L604.7 363.6L602.6 366H601.1L597.9 367.5L596.5 369.2L595.1 368.4L592 368.9L590.3 370L587.2 369.9L584.9 370.5L580.3 374.3L579 374.4L578 373.4L576.4 376L574 377.2L574.6 380.3L577.4 384.8L581 388.7L582.7 390.1L585.1 390.8L588.2 389.4L590.6 389.8L592.3 388.6L593.8 388.5L597.5 389.5L596.4 392L596.1 394.6L594.2 395.2L592 395.1L589.8 395.5L587.1 394H584.6L583.5 395.9L581.2 397.2L580.6 398.6L578 398.3L575.9 398.5L573.1 399.9L571.2 402.7L568.9 404.5L567 405L565 404.9L563.7 404.3L560.8 402.5L561.5 400.5L562 397L560.8 394.1L558.5 392.7L556.9 392.9L556 392.6L552.3 390.2L550.4 390L548.5 390.5L547 389.3L550.5 386.4L554 384L555.7 383.8L557.8 382.6L560 381L558.7 378.7L556.8 379.3L554.6 378.2L553.7 377.4L550.6 378.2L548.8 378.1L545 378.9L543.1 378.1L539.1 376.1L536.5 375.8V374.8L538.3 374.5L538.4 373.5L534.6 372.9L534.5 371.6L536.5 372.1L539.7 372.3L542.6 372.8L544.7 371L542.3 371.5L539.4 371L537.3 369.2L535.1 370.4L531.9 369.9L529.5 370.7L527.2 370.5L523.1 371.6L522.7 374.5L520.7 378.5L517.6 382.2L513 384.3L511.3 383.9L510.4 385L510.6 386.3L511.6 387.2L512.7 390.3L512.6 391.6Z" fill="#ECECEC" stroke="black" stroke-width="0.1" stroke-linecap="round" stroke-linejoin="round"/>
<path id="XK" d="M416.3 438.2L414.2 438.6L412.7 440.5L411.1 439.3L410.1 439.4L406.7 440.9L406.5 443.5L406 444.3L404.3 444L404.2 441.8L402.8 438.6L400.9 437.3L399.5 436.8L397.5 433.9L397 433.5L397.2 432.2L396.3 430.7L398.3 430.3L398.5 429.6L400.1 429.2L401.6 428.7V427.3L403.3 426L403.7 425L403.1 423.4L404.8 422.5L405.9 423.8L408.7 425.1L411 427.2L411.2 427.9L413.4 429.1V430.4L418.1 431.6L417.9 432.8L416.7 436L415.7 436.9L416.3 438.2Z" fill="#ECECEC" stroke="black" stroke-width="0.1" stroke-linecap="round" stroke-linejoin="round"/>
<path id="NL" d="M194.5 297.9L193.9 299.1L190.7 300.6L186.8 299.5L185.6 300.1L184.4 299.4L184.1 298.1L186.9 297.7L190.4 298.4L191.9 297.8L193.1 298.3L194.5 297.9ZM191.1 292.6L192.6 294L191.1 294.3L189.5 293.3L191.1 292.6ZM209.2 284.1L206.2 283.7L205.3 283L207.7 281.3L210.9 279.8L212.6 280.2L213.1 281.1L212 282.2L209.2 284.1ZM201.6 272.6L200.5 273.7L199.9 272.3L201.6 270.9V272.6ZM194.5 297.9L191.9 297.1L189.7 297.6L186.9 296.9L185.2 295.6L186.4 294.9L188.7 294.8L192.7 295.5L193.9 294.6L193.3 293.6L191 291.5L192.6 288.8L194 287.8L197.2 284L198.1 282L199.3 276.5L200.3 274.5L201.7 275L203.7 274.2L207.1 272.2L208.1 270.5L209.1 269.6L213.1 268L215.2 267.6L224.1 267.1L225.9 268.8L228.6 269.4L228.7 273.7L228 275.4L226.9 279.2L223.8 279.1L223.2 280.7L223.9 281.7L226.5 282L227.3 283L226.7 285.6L224.1 287.2L223.8 288.1L224.8 289L224.1 290L219.6 291.3L217.3 290.5L215.5 291.2L214.8 292.3L217.9 296.4V297.6L216.6 300.4L217.3 301.6L215.1 303.2L214.6 304L216.5 305.2L215.9 307.6L214.7 307.5L212.3 307.2L211.6 306.1L212.7 304.8L213.7 301.9L211.1 300.8L209.4 299.5L207.5 299.9L204.9 298.5L204.4 296.9L201.9 297.7L200.8 296.4L199.3 297.4L197.8 296.6L196.4 297.3L196.6 298.2L194.5 297.9ZM212.6 282.3L213.5 281.4L213 279.5L210.9 279.2L210.4 278.4L210.8 275.9L208 275.5L207.6 273L206.1 273.3L203.8 274.8L204.4 276.1L206 277.7V278.6L203.9 279.3L204 281.9L203.8 283.5L209.2 284.9L212.6 282.3Z" fill="#ECECEC"/>
<path id="ES" d="M162.7 490.1L162.3 491.1L160.3 490.7V489.2L161.5 487.6L164.2 486.9L165 488.2L162.7 490.1ZM184.4 476.5L185.6 477L186.9 476.5L188.3 476.9L188.5 477.9L186.3 481.4L185.7 482.8L183.6 484.1L179.6 482.4L179.3 480.8L177.9 480.1L176.2 481.4L174.8 480.4L174.5 479.2L179.8 475.5L181.3 474.6L184.5 473.7L185 474.9L184.4 476.5ZM199.1 475.7L198.8 475.9L194.9 474L193.3 473.6L193.4 472.2L196 472L198.1 472.7L199.3 474.5L199.1 475.7ZM121.7 420.2L122.2 421.5L126.5 422.8L126.2 426L128 425.6L132.4 427.3L134.6 427.5L136.8 429.6L140.4 429.2L143.6 431.3L146.7 430.9L147.4 431.3H152.1L152.9 428.9L156.9 430L159.4 431L161.1 431.3L162.2 432.8V434.9L162.9 435.3L165.7 434.2L168.5 435.4L169.8 436.6L171.9 435.5L176.6 436.7L177.8 435.9L181.6 434.8L184.7 435.4L185.9 437.6L184.1 438.1L183.9 439.5L185.1 440.8L185.2 442.9L182.2 445.7L173.5 450.4L170.6 453.1L164 454.6L159.5 456.1L157.3 456.6L153.2 460.4L154.3 460.7L155.5 461.9L155.1 462.5L152.6 463.6H151.7L148.8 468.2L146.2 471.5L144.7 473L143.2 475.1L140 480.7L139.9 482.3L141.5 487.8L143.7 490.5L146.1 491.6L146.7 492.6L145.9 493.6L143.5 495.3L139.2 497.6L137.4 499.5L137.1 501.3L135.8 502.1L135.3 504.6L133.5 509L134.8 510.2L133.5 511L127 511.3L122.9 514.1L120.9 516.5L119 521L116.8 523.6L115.8 524.1L114.3 522.9L112.4 522.8L110.5 523.1L109.5 524.1L108 524.6L106.5 524.1L101.9 523.9L99.6001 524.7L97.7001 524.2L94.5001 523.9L87.5001 524.5L83.5001 527.9H80.1001L77.0001 529.1L74.9001 532.1L74.4001 533.7L73.4001 533.4L73.1001 534.6L71.0001 535.4L68.6001 534.4L66.6001 532.9L65.6001 532.8L64.0001 530.6L62.8001 527.5V526.4L61.3001 525.8L61.0001 524.4L61.2001 522.8L60.0001 520.8L55.0001 517.1L51.3001 516.8L48.3001 517.3L47.2001 510.9L48.0001 508.7L51.5001 504.4L53.6001 503.8L54.3001 501.4L52.6001 501.6L49.6001 497.3L50.5001 493.3L53.7001 490.3L54.3001 487.9L53.8001 487.1L52.1001 486.7L50.5001 483.5L50.2001 481.6L48.8001 480.4L47.7001 478.5L48.8001 478.2H53.1001L54.1001 477.7L55.8001 474.2V472.3L54.4001 471L54.6001 470L57.3001 467.9L56.9001 466.8L57.3001 463L56.9001 459.5L56.1001 457.5L58.1001 455.9L59.2001 454.3L60.8001 452.9L62.9001 451.8L65.4001 449.3L65.1001 448.2L63.2001 447.3L61.3001 447.1L61.2001 444L60.5001 442.9L55.3001 442.8L53.8001 442.3L53.0001 443.7L50.5001 444.6H49.1001L46.9001 443.8L44.0001 443.9L41.0001 445L40.1001 443.7L41.4001 441.8L40.4001 440L36.3001 441L34.4001 441.9L33.2001 443L31.9001 442.9V440.4L34.5001 437.8L32.9001 437.6L34.1001 435.7L33.1001 434.7L33.2001 432.1L30.9001 433L30.4001 431.8L31.8001 429.6L30.4001 429.4L28.1001 426.9L28.9001 423.8L30.9001 422.8L32.8001 421.3L35.4001 421.6L37.1001 421.3L40.7001 419.7L40.3001 418.2L40.7001 417.5L43.9001 415.8L45.9001 415.6L47.8001 414.7L49.1001 415.2L50.2001 415.1L51.5001 415.7L53.2001 417.3L55.7001 417.9L57.7001 417.4L61.3001 417.3L63.0001 417.5L66.2001 417.2L68.0001 417.3L70.9001 416.5L73.2001 417.5L77.6001 417.9L80.2001 418.7L87.4001 420.1H90.1001L93.8001 419.3L95.4001 418.8L96.9001 419.1L99.0001 418.5L101.3 419.5L106 420.8L108.1 419.5L111.5 420.1L114.8 421.4L116.6 421.5L119.2 421.2L121.7 420.2Z" fill="#ECECEC" stroke="black" stroke-width="0.1" stroke-linecap="round" stroke-linejoin="round"/>
<path id="FR" d="M263.5 429.5L263.2 431.8L264.2 433.5L264.8 440L263 443.2L263.1 446.2L261.5 450.5L260.7 451.6L256.9 449.6L255.7 448.5L256.7 446.7L254.5 445.8L254.9 444.1L254.7 443.2L253.1 442.7L254.1 441.4V440.6L252.6 439.6L252.3 438.7L253.6 437.6L253 436.7L253.1 435.4L254 433.5L255.2 432.6L258 431.8L259.2 430.7L261.1 431.3L261.7 430.1L261.5 427.4L261.8 426.3L263.1 426.8L263.5 429.5ZM129.6 381.6L129.2 383L127.3 380.6L128.3 380.1L129.6 381.6ZM214 326L216.1 327.2H217.5L219.5 326.6L220.8 327.3L222.2 327.4L225.7 331.7L227.5 331L228.9 331.4L229.2 332.3L231.3 332.4L234.3 331.8L236.3 333.2L241.1 334L242.7 334.6L242.8 335.9L239.3 339.7L237.9 345.2L236.9 347L236.6 348.5L236.8 350.9L236.2 352.9V354.4L237.3 355.7L235.8 356.4L235 357.8L232.3 358.1L231.5 357.3H230.4L228.6 358.7L229.9 359.8L229.3 360.7L225.5 364.7L223.4 365.6L222.9 368.5L219.9 370.7L218.8 373.6L219.6 374.3L219.3 375.8L217.8 376.8V377.8L219.2 377.9L221.5 376.3L221 375L223.3 373.5L225.2 373.4L227.4 373.7L228.2 375.9L227.7 377.6L230 379.9L230.9 381.3L228.3 383L228.4 384.6L229.3 385.2L231 387.8L232.8 389.4L232 391.9L230.8 392.2L229.1 393.5L227.2 393.3L226.4 393.7L227.9 396.8L231.1 398.2L231.6 399.9L230.8 400.6L229.4 403.1L230.1 404.4L230.2 405.8L231.1 406.7L236.2 409.1L239.5 408.5L239.8 410.5L237.7 413.1L237.9 414.6L237.3 414.9L236.5 415.2L234.1 416.3L230.2 419.7L228.4 420.7L227.7 422.5L225.7 423.9L223.3 424.4L221 425.4L219.9 425H217.1L215.4 423.8L212 423L210.9 421.2L208.4 421.1L207.6 419.6L205.7 419.9L204.2 420.6L202.2 420.5L196.3 418.7L194.9 417.3L193.2 417.8L191.6 419.4L185.1 423.5L182.5 427.8L182.4 429L183.1 432.9L184.7 435.4L181.6 434.8L177.8 435.9L176.6 436.7L171.9 435.5L169.8 436.6L168.5 435.4L165.7 434.2V432.7L163.1 432.1L162.2 432.8L161.1 431.3L159.4 431L156.9 430L152.9 428.9L152.1 431.3H147.4L146.7 430.9L143.6 431.3L140.4 429.2L136.8 429.6L134.6 427.5L132.4 427.3L128 425.6L126.2 426L126.5 422.8L122.2 421.5L121.7 420.2L123.7 419.7L125.6 417.8L127.3 410.7L128.6 402.4L129.6 400.8L130.8 400.4L129.8 399.2L128.7 400.7L129.4 393.1L129.9 390.3L130.8 387.3L133.9 389.7L134.7 390.7L135.6 394.1L136.2 394.2L135.1 389.6L133.3 387.3L129.7 385L129.2 383.7L131 383.1L130.5 381.3L130 375.4L127 374.8L122.2 372.2L120.5 369.6L118.9 367.7L118.5 366L119.4 364.2L118.6 363.1L117.2 362.3L118.3 360.7L115.3 360.5L113.5 360L113.2 358.9L114.5 357.5L112.9 356.7L110.3 356.9L110.1 355.2L107.9 355.5L106.7 355.2L105.6 354.1L104.3 354.3L102.1 353.9L101.3 353.2L96.5001 351.9L94.5001 351.8L92.6 352.4L91.5001 352.1L90.2 349.9L87.1 348.8L87.7 348.1L90.8 347.5L91.4001 346.8L89.2 345.9L89.0001 344.7L90.6 345L90.7 343.8L86.7 343.9L86.3 342.6L86.8 341.2L89.1 340L94.9001 338.6L97.4001 338.8L99.1 338.6L102.1 337L105 336.6L107.7 337.4L110.2 340.2L111.4 341.2L114.5 339.5L118.9 339.6L119.8 340.5L121 338.8L122 339.8L126.7 339.6L125.2 337.1L125 331.1L123.7 329.4L121.6 325.1L121.8 323.7L125 324L127.7 323.4L129 323.8L129.3 326.6L130.4 328.2H132.6L134.9 328.7L137.9 328.8L142.2 329.6L144 329.1L147.5 327.1L145.7 326.4L145.5 325.7L146.4 323.5L151.6 321L155.3 320.3L159.1 319L161.1 317.6L162.3 315.8L162.8 314.5L163.1 307.7L164.1 305.5L167 303.9L173.4 302.8L174.3 302.3L175.2 304.5V305.7L178.1 308.1L181.3 307.1L182.9 308.9L183.4 310.9L187.6 312L188.2 314L189.1 313.7L192.7 314.1L194.3 315.2L193.9 316.8L194.6 317.5L193.9 318.9L194.4 319.5L196.7 319.8L198.9 319.5L200.2 318.9L200.7 317.5L202.6 316.9L201.8 319.6L202.4 320.2L202.8 322.2L204.5 322.3L207.8 323.8L210.6 326.4L214 326Z" fill="#ECECEC" stroke="black" stroke-width="0.1" stroke-linecap="round" stroke-linejoin="round"/>
<path id="CY" d="M585.5 551.7H585.4H585.3L585.4 551.6L585.5 551.7ZM585.5 551.7H585.6H585.7L585.8 551.8H585.7H585.6H585.5V551.7ZM585.1 551.4H585V551.3H585.1V551.2L585.2 551.3V551.4H585.1ZM588.6 550.6L588.8 550.7L589.1 551L589.3 551.4L589.4 551.7L589.6 551.9L589.8 552H589.6H589.3L589 551.9L588.8 551.7H588.6L587.9 551.8L587.3 551.9L587.2 552L587.1 552.1H586.8H586.5L586.4 552L586.6 551.9H586.7L586.6 551.6H586.4L586.2 551.5V551.1L586.1 551L585.8 550.9V550.7L585.9 550.6L586.1 550.5L586.2 550.6L586.3 550.7L586.5 550.6L586.6 550.5L586.7 550.4L586.8 550.3L587 550.5L587.2 550.6H587.3L587.5 550.7H587.6L587.9 550.6H588.1L588.2 550.7H588.4H588.5H588.6V550.6ZM584.6 551.7V551.9L584.3 552L584 552.3V552.5L583.9 552.8V553.1V553.4V553.7V553.8H583.8L583.7 553.9V554.2L583.6 554.3H583.4H583L582.8 554.4L582.7 554.5L582.6 554.7L582.5 554.8L582.3 554.9L581.9 555L581.5 555.2L581.2 555.3L581 555L581.1 555.5L580.7 555.7L579.8 555.9L579.6 556L579.5 556.1L579.3 556.2H579.1L578.2 556.1L577.2 556.2L577.1 556.3L576.9 556.4L576.3 556.9L576.2 557.2H575.9L575.6 557.3V557.4L575.5 557.3L575.4 557.1L575.5 556.9L575.6 557H575.9L575.8 556.6L575.4 556.5L575.2 556.7L575.1 556.8L574.9 556.7V556.8L574.5 556.7L574.2 556.5L574.1 556.4V556.2H574H573.9H573.8H573.7L573.6 556.3V556.4H573.4L573.3 556.6H573.1H572.9L572.8 556.7L572.9 556.9L572.7 557H572.2L571.6 556.9L571.1 556.7L570.4 556.3L570.1 556.2L569.8 556.1H569.3L569 556L568.8 555.8L568.2 555.4L568.1 555.3L568 554.9V554.8L567.9 554.7L567.5 553.8L567.4 553.7L567.1 553.5L566.9 553.4L566.8 553.3L566.7 553.1V552.9L566.8 552.7L566.5 552.3L566.4 552.1V551.7L566.3 551.5L566 551L565.8 550.7L565.7 550.3L565.8 550H565.9L566.2 550.1L566.6 550.6L566.9 550.7L567.1 550.8H567.7L568.1 550.6L568.4 550.2L568.7 549.8L568.8 549.3L568.9 549L569.1 548.9L569.2 548.8V548.7H569.3L569.4 548.8H569.5H569.7L569.8 548.9L570 549.1H570.2H570.3L570.5 548.9L570.6 548.7V548.5L571 548.6L571.2 549L571.3 549.2L571.4 549.4L571.6 549.5L572 549.6L572.3 549.7L572.5 549.9L572.7 550L572.8 550.2V550.4L572.9 550.5L573 550.6H573.1L573.5 550.5L573.6 550.3L573.7 550.1L573.8 550L573.9 550.1L574 550.2L574.2 550.3H574.4L574.6 550.2L574.8 550L575 549.8L575.2 549.7L575.5 549.5L575.6 549.3H575.8L576.1 549.4H576.4H576.8L576.9 549.3H577L577.1 549.1L577.4 548.9H577.6L577.8 549L577.9 549.1H578.1H578.2L578.4 549.3L578.6 549.5L578.8 549.6L579.1 549.7H579.2L579.3 549.6V549.5L579.4 549.3L579.7 549H579.8H580H580.3H580.5H580.6V549.2L580.7 549.4L580.8 549.5L581 549.7L581.2 549.9V550L581.3 550.3V550.5V550.8V551.2L581.2 551.5L581.3 551.7L581.4 551.8H581.6H581.8V551.5V551.1L581.9 551L582 550.9L582.1 550.8L582.2 550.9L582.3 551.3L582.4 551.5L582.5 551.6L582.8 551.5V551.3L582.9 551.2H583.1L583.2 551.3H583.4L583.5 551.2L583.6 551.3H583.7L584 551.5H584.2H584.3L584.6 551.7Z" fill="#ECECEC"/>
</g>
</svg>
